<svg xmlns="http://www.w3.org/2000/svg" xmlns:xlink="http://www.w3.org/1999/xlink" version="1.1" x="0px" y="0px" viewBox="0 0 100 125" enable-background="new 0 0 100 100" xml:space="preserve"><g><path d="M35.4,86.5c-1.9,2.6-1.8,4.4,0.4,6.6c3.6,3.6,6.5,0.9,6.3,1.1c0,0,0.2-0.1,0.5-0.4c-1.3-1.1-2.6-2.3-3.7-3.3   C37.6,89.2,36.4,87.8,35.4,86.5z"/><path d="M6.4,57.6c-0.4,0.5-0.6,0.8-0.6,0.8c0.2-0.2-2.5,2.8,1.1,6.3c2.2,2.2,3.9,2.3,6.4,0.5c-0.8-0.7-1.6-1.5-2.3-2.1   C9.1,61.1,7.5,59.2,6.4,57.6z"/><path d="M95,5.3L94.7,5l-4.8,3.9c0,0-1,0.2-3,1.1c0.6,0.6,1.1,1.2,1.8,1.9c0.5,0.5,0.9,0.9,1.4,1.3c0.9-2,1.1-3,1.1-3l0,0L95,5.3z"/><path d="M31.4,69c-2.7-2.7-0.9-5.9-1.2-5.6c-0.1,0.1-2.8,3.5-5.6,7.3c0.1,0.3,0.2,0.7,0.2,1c0,1.6-1.3,2.8-2.8,2.8c0,0-0.1,0-0.1,0   C19.6,78,18,81,18.7,81.8c0.3,0.3,1.1,0.2,2.1-0.2c0.3-1.2,1.4-2.1,2.7-2.1c0.3,0,0.6,0.1,0.9,0.2c1.8-1.1,3.7-2.5,5.5-3.8   c0-0.2-0.1-0.3-0.1-0.5c0-1.6,1.3-2.8,2.8-2.8c0.4,0,0.9,0.1,1.2,0.3c1.7-1.4,2.9-2.3,3-2.4C37.3,70,34,71.7,31.4,69z"/><path d="M58.9,30.7c-2.1,2-4.3,4.3-6.6,6.7C55.9,37.3,58.9,34.4,58.9,30.7z"/><path d="M86.1,10.7c-3.7,1.7-10.1,5.2-18.8,12.5c-0.2,0.1-2.1,1.8-3,2.6c0,0-3,2.7-4.5,4.1c0,0.3,0,0.5,0,0.8   c0,4.2-3.4,7.6-7.6,7.6c-0.2,0-0.5,0-0.7,0c-1.3,1.4-2.6,2.8-3.9,4.3c-2.9,0.2-10.7,0.7-21.3,2.9c-10.4,2.1-16.7,8.4-19,11.1   c1.2,1.7,2.8,3.6,4.7,5.5c0.8,0.8,1.6,1.5,2.3,2.2c0.8-0.6,1.7-1.4,2.7-2.5c0.5-0.5,11.8-4,17.2-2.6c0,0-1.7,0.9-2.7,3.4   c-1,2.6-0.5,4,0.9,5.4c1.4,1.4,2.8,1.9,5.4,0.9c2.6-1,3.4-2.7,3.4-2.7c1.4,5.5-2.2,16.8-2.6,17.3c-0.9,0.9-1.7,1.8-2.3,2.5   c1,1.3,2.2,2.7,3.6,4.1c1.3,1.3,2.6,2.5,3.7,3.4c2.5-2.1,9.1-8.5,11.3-19.3c2.1-10.6,2.7-18.5,2.9-21.4C64.7,46.6,70.2,41,74.6,36   c0,0,1.4-1.7,2.1-2.5c0.1-0.2,0.3-0.3,0.4-0.5c7.3-8.7,10.8-15.2,12.5-18.9c-0.5-0.5-1.1-1-1.5-1.5C87.3,12,86.7,11.4,86.1,10.7z"/></g></svg>
