<?xml version="1.0" encoding="UTF-8" standalone="no"?>
<svg
   xmlns:dc="http://purl.org/dc/elements/1.1/"
   xmlns:cc="http://creativecommons.org/ns#"
   xmlns:rdf="http://www.w3.org/1999/02/22-rdf-syntax-ns#"
   xmlns:svg="http://www.w3.org/2000/svg"
   xmlns="http://www.w3.org/2000/svg"
   xmlns:sodipodi="http://sodipodi.sourceforge.net/DTD/sodipodi-0.dtd"
   xmlns:inkscape="http://www.inkscape.org/namespaces/inkscape"
   id="svg"
   version="1.1"
   width="400"
   height="400"
   viewBox="0 0 400 400"
   enable-background="new 0 0 400 400"
   xml:space="preserve"
   sodipodi:docname="icon.svg"
   inkscape:version="0.92.3 (2405546, 2018-03-11)"><metadata
     id="metadata3733"><rdf:RDF><cc:Work
         rdf:about=""><dc:format>image/svg+xml</dc:format><dc:type
           rdf:resource="http://purl.org/dc/dcmitype/StillImage" /></cc:Work></rdf:RDF></metadata><defs
     id="defs3731" /><sodipodi:namedview
     pagecolor="#ffffff"
     bordercolor="#666666"
     borderopacity="1"
     objecttolerance="10"
     gridtolerance="10"
     guidetolerance="10"
     inkscape:pageopacity="0"
     inkscape:pageshadow="2"
     inkscape:window-width="1920"
     inkscape:window-height="1027"
     id="namedview3729"
     showgrid="false"
     inkscape:zoom="1.5202796"
     inkscape:cx="231.02423"
     inkscape:cy="200.35508"
     inkscape:window-x="-8"
     inkscape:window-y="-8"
     inkscape:window-maximized="1"
     inkscape:current-layer="flowRoot3746" /><flowRoot
     xml:space="preserve"
     id="flowRoot3738"
     style="font-style:normal;font-weight:normal;font-size:40px;line-height:1.25;font-family:sans-serif;letter-spacing:0px;word-spacing:0px;fill:#000000;fill-opacity:1;stroke:none"><flowRegion
       id="flowRegion3740"><rect
         id="rect3742"
         width="276.43277"
         height="161.52747"
         x="54.595222"
         y="75.717545" /></flowRegion><flowPara
       id="flowPara3744"
       style="-inkscape-font-specification:'sans-serif, Normal';font-family:sans-serif;font-weight:normal;font-style:normal;font-stretch:normal;font-variant:normal;font-size:192px;text-anchor:start;text-align:start;writing-mode:lr;font-variant-ligatures:normal;font-variant-caps:normal;font-variant-numeric:normal;font-feature-settings:normal">SX</flowPara></flowRoot><g
     inkscape:groupmode="layer"
     id="layer3"
     inkscape:label="ByronSX"><g
       aria-label="SX"
       transform="matrix(1.6157439,0,0,1.6157439,-48.837383,12.466693)"
       style="font-style:normal;font-weight:normal;font-size:40px;line-height:1.25;font-family:sans-serif;letter-spacing:0px;word-spacing:0px;display:inline;fill:#000000;fill-opacity:1;stroke:none"
       id="flowRoot3746"><path
         d="m 127.74609,85.222656 v 18.468754 q -10.78125,-5.156254 -20.34375,-7.687504 -9.562496,-2.53125 -18.468746,-2.53125 -15.46875,0 -23.90625,6 -8.34375,6.000004 -8.34375,17.062504 0,9.28125 5.53125,14.0625 5.625,4.6875 21.1875,7.59375 l 11.4375,2.34375 q 21.187496,4.03125 31.218746,14.25 10.125,10.125 10.125,27.1875 0,20.34375 -13.6875,30.84375 -13.59375,10.5 -39.937496,10.5 -9.9375,0 -21.1875,-2.25 -11.15625,-2.25 -23.15625,-6.65625 v -19.5 q 11.53125,6.46875 22.59375,9.75 11.0625,3.28125 21.75,3.28125 16.21875,0 25.031246,-6.375 8.8125,-6.375 8.8125,-18.1875 0,-10.3125 -6.375,-16.125 -6.28125,-5.8125 -20.718746,-8.71875 l -11.53125,-2.25 q -21.1875,-4.21875 -30.65625,-13.21875 -9.46875,-9 -9.46875,-25.03125 0,-18.562504 13.03125,-29.250004 13.125,-10.6875 36.09375,-10.6875 9.84375,0 20.062496,1.78125 10.21875,1.78125 20.90625,5.34375 z"
         style="font-style:normal;font-variant:normal;font-weight:normal;font-stretch:normal;font-size:192px;font-family:sans-serif;-inkscape-font-specification:'sans-serif, Normal';font-variant-ligatures:normal;font-variant-caps:normal;font-variant-numeric:normal;font-feature-settings:normal;text-align:start;writing-mode:lr-tb;text-anchor:start;fill:#000000"
         id="path25" /><path
         d="m 158.96484,80.628906 h 20.34375 l 34.78125,52.031254 34.96875,-52.031254 h 20.34375 l -45,67.218754 48,72.75 h -20.34375 l -39.375,-59.53125 -39.65625,59.53125 h -20.4375 l 49.96875,-74.71875 z"
         style="font-style:normal;font-variant:normal;font-weight:normal;font-stretch:normal;font-size:192px;font-family:sans-serif;-inkscape-font-specification:'sans-serif, Normal';font-variant-ligatures:normal;font-variant-caps:normal;font-variant-numeric:normal;font-feature-settings:normal;text-align:start;writing-mode:lr-tb;text-anchor:start;fill:#000000"
         id="path27" /></g><path
       style="display:inline;fill:#000000;fill-rule:evenodd;stroke:none"
       inkscape:connector-curvature="0"
       d="M 39.997,17.009 C 39.379,18.634 39.46,95.3 40.08,95.92 40.654,96.494 71.739,96.561 75,95.994 90.824,93.246 99.758,80.705 95.232,67.593 93.153,61.574 86.627,55.6 82.128,55.6 80.056,55.6 81.116,54.437 85.071,52.371 96.209,46.553 96.67,28.229 85.866,20.787 80.16,16.856 76.558,16.282 56.497,16.107 L 40.393,15.966 39.997,17.009 M 341.37,17.8 c -0.751,0.575 -0.745,0.61 0.23,1.371 0.887,0.693 1.023,1.157 1.2,4.105 0.194,3.229 0.23,3.327 1.248,3.446 1.268,0.147 1.539,-0.589 1.547,-4.206 0.004,-2.039 0.163,-2.632 0.883,-3.303 1.529,-1.424 -3.337,-2.771 -5.108,-1.413 m 16.797,-0.212 c -0.459,0.185 -1.349,1.355 -1.978,2.599 -1.584,3.131 -2.567,3.347 -2.583,0.567 -0.007,-1.287 -1.412,-3.154 -2.373,-3.154 -1.558,0 -2.033,1.246 -2.033,5.331 V 26.8 h 1.161 c 0.93,0 1.244,-0.238 1.579,-1.2 0.46,-1.319 1.26,-1.621 1.26,-0.476 0,2.557 2.871,2.731 3.467,0.209 0.476,-2.013 1.224,-2.137 1.562,-0.259 0.359,1.991 0.897,2.686 1.616,2.089 1.204,-1 0.474,-10.38 -0.774,-9.938 -0.039,0.014 -0.446,0.177 -0.904,0.363 M 77.6,18.446 c 0.77,0.346 2.035,0.747 2.811,0.893 1.418,0.265 4.903,2.384 7.04,4.28 7.124,6.318 6.551,21.313 -1.013,26.555 -0.863,0.598 -3.055,1.838 -4.872,2.756 -4.126,2.086 -4.341,3.47 -0.539,3.47 2.272,0 8.279,3.542 10.491,6.186 0.947,1.132 2.881,5.598 2.882,6.654 0,0.572 0.194,1.598 0.432,2.28 1.808,5.186 -3.407,16.645 -8.796,19.33 -0.57,0.283 -1.306,0.719 -1.636,0.969 -0.983,0.743 -5.156,2.057 -9,2.834 -4.01,0.81 -33.034,1.268 -34.213,0.539 -0.803,-0.496 -1.122,-76.106 -0.325,-77.067 0.748,-0.9 34.677,-0.604 36.738,0.321 M 359.4,20.4 c -0.194,0.313 -0.424,0.336 -0.69,0.07 -0.22,-0.22 -0.27,-0.612 -0.11,-0.87 0.194,-0.313 0.424,-0.336 0.69,-0.07 0.22,0.22 0.27,0.612 0.11,0.87 m -4.277,4.43 c -0.078,0.236 -0.314,0.43 -0.523,0.43 -0.209,0 -0.444,-0.194 -0.523,-0.43 -0.079,-0.236 0.156,-0.43 0.523,-0.43 0.367,0 0.602,0.194 0.523,0.43 M 55.998,29.003 c -0.925,1.114 -1.109,18.263 -0.211,19.633 0.79,1.206 9.124,1.454 12.213,0.364 0.935,-0.33 2.12,-0.6 2.633,-0.6 1.979,0 5.451,-2.908 6.605,-5.533 C 79.526,37.663 77.136,31.968 71.731,29.743 68.444,28.391 56.955,27.85 55.998,29.003 m 12.923,1.246 c 5.322,1.199 7.879,3.999 7.879,8.627 0,6.576 -3.515,8.878 -13.6,8.906 L 56.6,47.8 56.487,39.6 c -0.152,-11.006 -0.649,-10 4.942,-10 2.805,0 5.741,0.254 7.492,0.649 m 128.498,6.039 c -4.091,1.248 -9.472,5.995 -10.77,9.501 -0.57,1.539 -1.037,-0.279 -1.043,-4.066 -0.008,-4.946 0.027,-4.923 -7.466,-4.923 -4.633,0 -5.799,0.116 -6.311,0.629 -0.828,0.828 -0.973,57.667 -0.149,58.491 0.693,0.693 14.464,0.675 15.028,-0.02 0.251,-0.309 0.487,-6.526 0.617,-16.3 0.203,-15.192 0.248,-15.918 1.162,-18.872 2.276,-7.359 5.745,-9.83 13.14,-9.362 5.385,0.341 5.099,0.816 4.802,-7.955 -0.227,-6.741 -0.236,-6.793 -1.229,-7.295 -1.326,-0.669 -5.314,-0.581 -7.781,0.172 m 35.781,0.113 c -27.403,5.725 -33.189,45.617 -8.4,57.912 6.515,3.232 19.129,4.683 23.687,2.726 0.818,-0.352 1.808,-0.639 2.2,-0.64 0.392,0 2.573,-0.902 4.846,-2.004 21.374,-10.36 21.027,-45.627 -0.544,-55.366 -1.314,-0.593 -2.749,-1.279 -3.189,-1.523 -3.044,-1.694 -12.965,-2.283 -18.6,-1.105 m 77.2,-0.03 c -3.804,0.889 -7.441,2.79 -10.083,5.27 -2.442,2.293 -2.506,2.265 -2.553,-1.133 -0.05,-3.681 -0.106,-3.708 -7.778,-3.708 -5.559,0 -6.336,0.082 -6.924,0.731 -0.858,0.948 -1.034,57.537 -0.182,58.389 0.878,0.878 14.438,0.654 15.258,-0.251 0.591,-0.654 0.662,-2.334 0.662,-15.711 0,-14.931 0.357,-20.79 1.386,-22.733 0.299,-0.564 0.761,-1.611 1.028,-2.328 1.882,-5.054 9.838,-8.088 14.451,-5.51 4.947,2.765 5.258,4.325 5.435,27.199 0.096,12.518 0.287,18.957 0.571,19.3 0.756,0.911 14.021,0.717 14.867,-0.217 1.631,-1.803 0.775,-42.851 -0.976,-46.78 -0.419,-0.941 -0.762,-1.912 -0.762,-2.158 0,-0.735 -2.809,-4.741 -4.421,-6.305 -4.263,-4.137 -12.487,-5.806 -19.979,-4.055 m -208.18,0.965 c -0.861,0.63 -0.65,2.606 0.561,5.264 0.401,0.88 0.918,2.14 1.148,2.8 0.231,0.66 0.891,2.46 1.468,4 0.577,1.54 1.299,3.61 1.603,4.6 0.304,0.99 1.025,3.06 1.602,4.6 1.575,4.206 2.563,6.991 3.224,9.083 0.327,1.035 0.75,1.978 0.939,2.095 0.189,0.117 0.457,0.811 0.594,1.542 0.137,0.731 0.852,2.781 1.589,4.556 0.737,1.774 1.466,3.743 1.619,4.375 0.154,0.632 0.746,2.319 1.316,3.749 0.57,1.43 1.749,4.58 2.619,7 0.87,2.42 1.851,5.12 2.18,6 2.548,6.823 -1.871,11.6 -10.732,11.6 -6.677,0 -6.285,-0.337 -6.784,5.829 -0.468,5.779 -0.603,5.533 3.582,6.558 8.231,2.017 17.015,-0.096 21.953,-5.281 2.285,-2.398 6.899,-10.325 6.899,-11.851 0,-0.267 0.34,-1.153 0.756,-1.969 0.416,-0.816 0.876,-1.98 1.022,-2.585 0.146,-0.606 1.001,-2.991 1.9,-5.301 0.899,-2.31 1.988,-5.19 2.421,-6.4 0.432,-1.21 1.012,-2.74 1.288,-3.4 1.148,-2.749 2.213,-5.642 2.213,-6.014 0,-0.219 0.336,-1.025 0.747,-1.792 0.41,-0.767 0.884,-2.024 1.053,-2.794 0.169,-0.77 0.643,-2.027 1.053,-2.794 0.411,-0.767 0.747,-1.566 0.747,-1.776 0,-0.21 0.745,-2.282 1.656,-4.606 0.911,-2.323 2.016,-5.214 2.456,-6.424 0.44,-1.21 1.028,-2.74 1.307,-3.4 0.279,-0.66 0.998,-2.55 1.598,-4.2 2.191,-6.027 2.728,-7.431 3.448,-9.026 1.856,-4.109 1.125,-4.574 -7.194,-4.574 -8.031,0 -7.464,-0.428 -10.075,7.6 -1.109,3.41 -2.282,6.767 -2.606,7.46 -0.325,0.694 -0.59,1.452 -0.59,1.685 0,0.436 -3.277,10.754 -4.209,13.255 -0.784,2.101 -1.761,5.136 -2.448,7.6 -1.059,3.803 -2.265,4.459 -2.753,1.498 -0.154,-0.934 -0.464,-1.926 -0.689,-2.204 -0.225,-0.278 -0.646,-1.448 -0.935,-2.6 -0.565,-2.246 -1.507,-5.232 -2.366,-7.494 -0.874,-2.302 -1.824,-5.273 -2.375,-7.427 -0.286,-1.115 -0.717,-2.397 -0.958,-2.848 -0.242,-0.452 -0.616,-1.52 -0.831,-2.373 -0.591,-2.348 -1.637,-5.432 -2.222,-6.552 -0.287,-0.55 -0.651,-1.604 -0.809,-2.342 -0.447,-2.089 -1.739,-4.747 -2.437,-5.015 -1.35,-0.518 -14.786,-0.265 -15.548,0.293 m 102.5,-0.056 c 0.333,0.333 0.48,2.423 0.48,6.824 v 6.344 l -3.744,-0.275 c -5.146,-0.377 -7.258,0.329 -10.256,3.429 -4.255,4.399 -5.228,9.845 -5.171,28.918 0.026,8.792 -0.092,12.074 -0.449,12.505 -0.584,0.703 -11.835,0.78 -12.68,0.087 -0.695,-0.57 -0.735,-56.12 -0.041,-56.548 0.648,-0.401 10.832,-0.186 11.344,0.239 0.282,0.234 0.323,1.688 0.123,4.383 -0.347,4.684 -0.027,6.014 1.449,6.014 0.822,0 1.069,-0.278 1.426,-1.605 1.148,-4.26 6.826,-9.459 11.399,-10.434 2.11,-0.45 5.619,-0.382 6.12,0.119 m 44.419,0.733 c 10.396,2.892 16.798,9.293 19.895,19.893 1.801,6.165 0.982,19.277 -1.391,22.261 -0.19,0.238 -0.483,0.88 -0.651,1.427 -0.458,1.489 -3.235,5.08 -5.968,7.715 -10.214,9.852 -31.579,9.707 -41.844,-0.283 -9.729,-9.468 -11.672,-27.607 -4.169,-38.92 0.764,-1.151 1.389,-2.215 1.389,-2.362 0,-0.148 1.248,-1.461 2.774,-2.919 7.188,-6.868 19.612,-9.692 29.965,-6.812 M 320.4,37.168 c 7.442,1.228 12.352,5.765 14.393,13.299 0.821,3.034 1.366,43.506 0.601,44.742 -0.373,0.604 -11.89,0.505 -12.704,-0.109 -0.598,-0.451 -0.673,-2.407 -0.776,-20.1 -0.104,-17.783 -0.179,-19.711 -0.812,-20.8 -0.383,-0.66 -0.698,-1.392 -0.7,-1.627 -10e-4,-0.235 -0.587,-1.073 -1.302,-1.862 -5.256,-5.798 -15.332,-3.756 -18.926,3.835 -2.627,5.548 -2.698,6.14 -2.874,24.142 l -0.162,16.487 -1.269,0.232 c -0.698,0.127 -3.699,0.177 -6.669,0.112 l -5.4,-0.119 -0.103,-28.489 -0.102,-28.489 5.702,-0.111 c 7.512,-0.146 7.671,-0.076 7.334,3.215 -0.44,4.297 0.76,4.777 3.904,1.562 4.851,-4.961 12.273,-7.173 19.865,-5.92 m -159.444,1.628 c 0.247,0.247 0.155,0.64 -0.254,1.095 -0.352,0.39 -0.771,1.249 -0.932,1.909 -0.161,0.66 -0.625,1.827 -1.031,2.594 -0.407,0.767 -0.739,1.729 -0.739,2.138 0,0.41 -0.251,1.222 -0.557,1.806 -0.306,0.584 -1.043,2.412 -1.637,4.062 -0.594,1.65 -1.307,3.54 -1.584,4.2 -1.464,3.488 -2.334,5.744 -2.699,7 -0.223,0.77 -0.547,1.58 -0.718,1.8 -0.172,0.22 -0.447,1.03 -0.612,1.8 -0.165,0.77 -0.636,2.027 -1.046,2.794 -0.411,0.767 -0.747,1.616 -0.747,1.887 0,0.27 -0.252,1.083 -0.559,1.805 -0.308,0.723 -1.045,2.664 -1.638,4.314 -1.1,3.064 -1.492,4.019 -2.964,7.226 -0.462,1.005 -0.839,2.051 -0.839,2.326 0,0.275 -0.338,1.343 -0.751,2.374 -0.413,1.031 -1.247,3.224 -1.854,4.874 -8.906,24.22 -14.509,28.395 -32.954,24.555 -0.953,-0.199 -0.957,-0.222 -0.707,-4.037 0.35,-5.324 0.737,-5.852 3.987,-5.436 7.774,0.996 12.11,-1.343 13.91,-7.502 0.823,-2.819 0.841,-3.112 0.257,-4.4 -0.343,-0.759 -0.743,-1.83 -0.888,-2.38 -0.291,-1.104 -1.617,-4.695 -2.46,-6.66 -0.297,-0.694 -0.54,-1.415 -0.54,-1.603 0,-0.188 -0.644,-1.961 -1.431,-3.94 -0.787,-1.978 -1.672,-4.317 -1.966,-5.197 -0.294,-0.88 -1.292,-3.67 -2.217,-6.2 -0.926,-2.53 -1.936,-5.32 -2.245,-6.2 -0.31,-0.88 -0.738,-1.96 -0.952,-2.4 -0.215,-0.44 -0.643,-1.61 -0.953,-2.6 -0.561,-1.794 -2.825,-8.079 -4.826,-13.4 -0.58,-1.54 -1.244,-3.429 -1.478,-4.198 -0.233,-0.769 -0.673,-1.754 -0.978,-2.189 -0.305,-0.435 -0.554,-1.201 -0.554,-1.702 V 38.4 h 7.409 7.408 l 0.435,1.1 c 0.239,0.605 0.56,1.37 0.713,1.7 0.154,0.33 0.787,2.22 1.408,4.2 0.62,1.98 1.448,4.5 1.84,5.6 0.392,1.1 1.107,3.26 1.59,4.8 0.482,1.54 1.219,3.703 1.637,4.808 0.418,1.104 0.76,2.241 0.76,2.526 0,0.285 0.337,1.361 0.75,2.392 0.412,1.031 1.613,4.574 2.669,7.874 2.172,6.788 2.173,6.789 3.486,6.46 0.803,-0.202 1.111,-0.758 1.853,-3.351 1.394,-4.866 2.413,-8.058 3.866,-12.109 1.38,-3.846 5.093,-15.257 5.57,-17.122 0.299,-1.166 0.714,-2.336 0.923,-2.6 0.208,-0.263 0.599,-1.421 0.869,-2.573 0.916,-3.907 0.947,-3.921 8.25,-3.799 3.484,0.058 6.508,0.278 6.72,0.49 m 76.644,8.766 c -9.828,1.21 -15.463,14.794 -11.418,27.525 4.94,15.547 24.626,14.917 28.536,-0.914 4.024,-16.289 -3.68,-28.266 -17.118,-26.611 m 7.592,1.737 c 1.215,0.494 2.442,1.12 2.728,1.391 0.286,0.271 0.745,0.631 1.02,0.801 6.34,3.908 7.411,20.949 1.79,28.478 -5.637,7.549 -17.83,6.517 -22.04,-1.865 -2.257,-4.493 -3.448,-13.913 -2.153,-17.017 0.296,-0.708 0.671,-1.997 0.833,-2.866 0.163,-0.868 0.641,-2.017 1.063,-2.554 0.422,-0.536 0.767,-1.226 0.767,-1.533 0,-0.308 0.263,-0.66 0.585,-0.784 0.321,-0.123 0.694,-0.567 0.827,-0.987 0.133,-0.42 0.429,-0.763 0.657,-0.763 0.229,0 0.95,-0.45 1.604,-1 0.654,-0.55 1.49,-1.006 1.858,-1.014 0.368,-0.008 1.119,-0.272 1.669,-0.586 1.607,-0.919 6.184,-0.763 8.792,0.299 M 55.774,60.598 c -0.387,0.6 -0.528,3.496 -0.56,11.488 C 55.16,85.545 54.572,84.538 62.33,84.271 72.156,83.934 76.983,82.16 78.856,78.2 79.064,77.76 79.494,76.95 79.811,76.4 82.355,71.99 79.16,64.239 73.631,61.409 70.482,59.797 56.693,59.17 55.774,60.598 m 15.79,1.535 c 3.257,0.944 6.194,3.313 6.692,5.399 0.14,0.587 0.454,1.321 0.699,1.63 2.028,2.559 -2.002,12.022 -5.127,12.04 -0.235,0.002 -0.914,0.257 -1.509,0.567 C 70.125,82.913 60.106,83.7 57.3,82.948 L 56.4,82.707 V 71.976 61.246 l 1.7,-0.145 c 3.838,-0.329 10.538,0.185 13.464,1.032 M 242.888,102.9 c -0.644,0.785 -1.323,3.743 -1.034,4.498 0.389,1.012 -0.668,1.485 -1.744,0.78 -0.807,-0.529 -1.077,-0.503 -2.693,0.256 l -1.796,0.844 -1.443,-0.892 c -2.573,-1.59 -2.779,-0.972 -2.772,8.328 0.008,9.509 0.422,10.802 2.905,9.063 0.843,-0.59 0.889,-0.898 0.889,-5.946 0,-6.217 0.2,-6.661 3.827,-8.498 2.568,-1.3 3.036,-1.033 2.929,1.667 -0.444,11.186 0.298,13.185 4.896,13.195 2.375,0.005 2.56,-0.063 3.069,-1.116 0.702,-1.45 0.08,-2.279 -1.708,-2.279 -2.248,0 -2.613,-0.849 -2.613,-6.083 0,-3.22 0.151,-4.738 0.5,-5.01 0.415,-0.325 3.765,-1.307 4.458,-1.307 0.386,0 1.756,3.508 2.05,5.245 0.161,0.956 0.523,2.101 0.804,2.546 0.281,0.445 0.634,1.529 0.783,2.409 1.205,7.077 5.542,7.298 6.756,0.344 0.972,-5.564 2.324,-7.151 2.784,-3.267 0.221,1.873 0.898,4.363 1.91,7.029 1.09,2.875 4.361,1.258 4.974,-2.46 0.149,-0.905 0.455,-1.874 0.68,-2.152 0.225,-0.278 0.644,-1.448 0.931,-2.6 0.287,-1.152 0.794,-2.814 1.128,-3.694 0.334,-0.88 0.615,-2.026 0.624,-2.547 0.015,-0.801 0.156,-0.9 0.918,-0.647 0.495,0.164 2.691,0.345 4.881,0.402 3.977,0.104 5.419,0.699 5.419,2.236 0,0.823 -1.672,1.956 -2.887,1.956 -1.209,0 -3.802,0.761 -5.797,1.701 -1.498,0.707 -2.619,3.632 -2.112,5.515 0.995,3.696 6.459,5.641 9.459,3.368 0.987,-0.748 2.718,-0.729 3.354,0.036 0.769,0.927 2.46,0.556 3.157,-0.693 0.548,-0.981 0.534,-1.144 -0.164,-1.916 -0.655,-0.724 -0.78,-1.582 -0.872,-6.015 -0.122,-5.81 -0.757,-7.799 -2.806,-8.781 -1.534,-0.735 -8.084,-1.023 -10.342,-0.454 -1.342,0.338 -2.028,0.34 -2.651,0.007 -1.44,-0.771 -2.846,0.657 -3.418,3.474 -0.263,1.297 -0.758,3.342 -1.1,4.545 -0.341,1.203 -0.621,2.508 -0.621,2.9 0,1.124 -0.761,0.831 -1.004,-0.387 -0.12,-0.605 -0.41,-1.64 -0.643,-2.3 -0.234,-0.66 -0.677,-2.454 -0.985,-3.988 -0.857,-4.259 -3.828,-6.25 -4.926,-3.301 -1.006,2.702 -1.357,3.882 -1.691,5.689 -0.671,3.628 -0.74,3.8 -1.532,3.8 -0.84,0 -1.019,-0.428 -1.425,-3.4 -0.15,-1.1 -0.469,-2.36 -0.708,-2.8 -0.239,-0.44 -0.539,-1.429 -0.666,-2.198 -0.288,-1.731 -1.961,-2.739 -3.434,-2.068 -0.571,0.26 -1.355,0.289 -2.055,0.075 -0.622,-0.19 -1.669,-0.498 -2.327,-0.685 -1.059,-0.301 -1.229,-0.565 -1.476,-2.294 -0.343,-2.399 -1.593,-3.407 -2.64,-2.13 m 89.963,0.926 c -1.671,2.124 1.015,4.651 2.92,2.745 0.857,-0.856 0.79,-2.01 -0.171,-2.971 -1.067,-1.067 -1.778,-1.008 -2.749,0.226 m -88.388,0.474 c 0.034,0.165 0.097,0.764 0.139,1.331 0.185,2.489 0.566,3.169 1.773,3.169 2.777,0 3.232,0.988 0.634,1.378 -2.322,0.348 -2.23,0.078 -2.261,6.681 -0.029,6.37 0.123,6.741 2.762,6.741 0.91,0 1.3,0.165 1.185,0.5 -0.193,0.562 -4.43,0.697 -4.971,0.159 -0.357,-0.357 -0.692,-18.844 -0.357,-19.716 0.221,-0.577 0.99,-0.747 1.096,-0.243 m -51.365,3.802 c -0.974,0.758 -1.256,0.802 -2.428,0.378 -3.486,-1.261 -3.589,-1.007 -3.59,8.806 -0.001,7.97 0.163,8.714 1.92,8.714 1.525,0 1.733,-0.773 1.869,-6.948 l 0.131,-5.942 1.385,-1.155 c 3.791,-3.162 5.215,-1.255 5.215,6.981 0,5.097 0.09,5.886 0.767,6.72 l 0.767,0.944 1.133,-0.842 1.133,-0.843 0.111,-5.947 c 0.128,-6.816 0.717,-8.168 3.564,-8.168 2.638,0 2.925,0.776 2.925,7.92 0,6.655 0.157,7.28 1.831,7.28 1.56,0 1.727,-0.75 1.807,-8.1 0.088,-8.064 -0.075,-8.611 -2.969,-9.925 -2.26,-1.026 -4.132,-0.958 -6.199,0.224 l -1.73,0.989 -1.867,-0.994 c -2.274,-1.211 -4.296,-1.243 -5.775,-0.092 M 306.4,108.034 c -0.99,0.448 -2.175,1.167 -2.633,1.597 -0.829,0.779 -0.835,0.778 -1.297,-0.236 -0.821,-1.803 -3.039,-1.952 -4.85,-0.327 -0.481,0.432 -0.72,0.391 -1.4,-0.244 -3.077,-2.87 -3.82,-1.32 -3.82,7.976 0,8.042 0.258,9.2 2.05,9.2 1.669,0 1.95,-0.968 1.95,-6.704 0,-5.782 0.104,-6.015 3.423,-7.708 2.701,-1.377 2.904,-1.216 1.777,1.412 -4.203,9.805 7.91,18.56 14.35,10.372 2.599,-3.303 -0.075,-4.847 -3.223,-1.86 -2.419,2.296 -5.824,1.78 -7.261,-1.099 -0.87,-1.745 -0.114,-2.013 5.679,-2.013 5.943,0 6.257,-0.197 5.937,-3.722 -0.497,-5.488 -5.866,-8.828 -10.682,-6.644 m -129.357,-0.012 c -8.289,1.389 -7.528,9.316 1.02,10.622 4.096,0.626 5.618,3.139 2.52,4.162 -1.999,0.659 -3.987,0.122 -5.368,-1.45 -2.539,-2.892 -5.387,-0.789 -3.115,2.3 3.012,4.095 11.748,3.774 13.517,-0.497 1.635,-3.948 -0.761,-6.886 -6.506,-7.976 -1.138,-0.216 -2.485,-0.783 -2.992,-1.259 l -0.923,-0.868 0.871,-0.928 c 0.769,-0.818 1.245,-0.928 4.023,-0.928 3.062,0 5.51,-0.708 5.51,-1.595 0,-1.773 -3.529,-2.426 -8.557,-1.583 m 37.357,-0.144 c -0.653,0.233 -1.6,1.289 -1.6,1.784 0,0.854 2.052,1.336 5.687,1.337 3.449,0.001 3.986,0.099 4.753,0.865 1.466,1.464 0.798,2.828 -1.542,3.144 -7.157,0.968 -10.585,4.599 -8.138,8.622 1.617,2.66 6.755,4.006 8.738,2.29 1.178,-1.019 2.408,-1.109 3.494,-0.254 2.246,1.766 4.758,-0.681 2.877,-2.803 -0.439,-0.497 -0.624,-2.076 -0.734,-6.29 -0.173,-6.595 -0.475,-7.336 -3.386,-8.329 -1.835,-0.625 -8.729,-0.874 -10.149,-0.366 m 108.341,0.35 c -6.81,2.096 -5.017,9.242 2.606,10.385 2.097,0.314 3.853,1.485 3.853,2.567 0,2.481 -5.454,2.472 -7.223,-0.012 -1.177,-1.654 -3.308,-1.572 -3.504,0.135 -0.301,2.616 3.532,5.274 7.552,5.238 5.322,-0.049 8.835,-4.293 6.761,-8.168 -0.566,-1.056 -3.699,-2.579 -6.497,-3.157 -5.419,-1.119 -4.329,-4.016 1.511,-4.016 2.728,0 3.478,-0.141 4.256,-0.799 l 0.944,-0.799 -1.122,-1.001 c -1.334,-1.189 -5.881,-1.375 -9.137,-0.373 m -138.925,0.999 c 0.446,0.72 -0.004,0.824 -3.95,0.914 -3.082,0.071 -3.972,0.231 -4.64,0.835 -1.703,1.542 -0.608,4.624 1.643,4.624 0.38,0 0.835,0.246 1.011,0.546 0.18,0.307 1.272,0.634 2.495,0.748 5.32,0.496 6.565,6.949 1.5,7.771 -1.726,0.28 -2.054,-0.465 -0.47,-1.067 2.641,-1.004 1.945,-4.927 -0.964,-5.436 -0.793,-0.138 -1.84,-0.502 -2.327,-0.807 -0.487,-0.305 -1.406,-0.555 -2.042,-0.555 -4.243,0 -4.482,-6.354 -0.285,-7.575 1.758,-0.511 7.713,-0.51 8.029,0.002 m 15.47,0.573 c 0.809,0.55 1.661,1 1.893,1 0.572,0 0.535,0.232 -0.279,1.72 -0.529,0.968 -0.749,2.574 -0.9,6.583 -0.279,7.41 -0.951,7.017 -1.2,-0.703 -0.256,-7.93 -0.491,-8.387 -4.333,-8.413 -1.729,-0.011 -1.809,-0.056 -1.091,-0.6 1.256,-0.95 4.208,-0.743 5.91,0.413 m 10.467,0.373 c 1.015,1.332 1.698,13.442 0.808,14.333 -0.93,0.929 -1.181,-0.395 -1.026,-5.393 0.24,-7.691 -0.611,-9.095 -5.515,-9.108 -3.808,-0.009 -1.569,-1.076 2.433,-1.159 2.118,-0.043 2.314,0.036 3.3,1.327 m 16.038,0.027 c 0.936,1.146 0.981,1.455 0.995,6.877 0.013,5.332 0.066,5.714 0.867,6.275 1.112,0.779 0.743,1.87 -0.529,1.561 -0.508,-0.124 -1.222,-0.483 -1.586,-0.797 -0.574,-0.496 -0.892,-0.494 -2.386,0.011 -1.791,0.605 -3.332,0.487 -2.286,-0.177 0.294,-0.186 1.119,-0.341 1.834,-0.344 0.92,-0.004 1.3,-0.192 1.3,-0.643 0,-0.35 0.36,-1.094 0.8,-1.654 1.407,-1.789 1.083,-3.621 -0.789,-4.46 l -1.589,-0.711 1.378,-0.658 c 4.287,-2.044 1.351,-5.219 -5.007,-5.415 -2.416,-0.075 -4.393,-0.285 -4.393,-0.467 0,-1.489 10.119,-0.955 11.391,0.602 m 13.406,-0.189 c -0.799,0.504 -1.997,0.49 -1.997,-0.024 0,-0.227 0.405,-0.568 0.9,-0.758 1.098,-0.421 1.992,0.216 1.097,0.782 m 24.722,0.392 c 0.065,0.768 0.38,1.964 0.7,2.657 0.66,1.433 0.825,5.937 0.181,4.94 -0.213,-0.33 -0.391,-1.545 -0.394,-2.7 -0.006,-2.196 -1.031,-2.915 -2.319,-1.627 -0.735,0.735 -1.044,0.086 -0.946,-1.981 0.143,-3.009 2.537,-4.119 2.778,-1.289 m 22.773,-0.294 c 1.101,1.102 1.108,1.146 1.145,6.699 0.031,4.607 0.155,5.72 0.7,6.323 1.576,1.741 0.848,2.384 -1.401,1.237 -1.169,-0.597 -1.754,-0.71 -2.064,-0.4 -0.525,0.525 -2.813,0.583 -2.491,0.063 0.125,-0.203 0.766,-0.488 1.424,-0.632 0.657,-0.144 1.195,-0.436 1.195,-0.647 0,-0.211 0.373,-0.89 0.83,-1.507 1.286,-1.74 0.938,-3.669 -0.811,-4.492 l -1.38,-0.649 1.28,-0.662 c 1.531,-0.792 1.744,-2.616 0.496,-4.242 -0.721,-0.939 -1.017,-1.005 -4.845,-1.087 -4.203,-0.089 -4.972,-0.274 -3.958,-0.948 1.416,-0.943 8.689,-0.248 9.88,0.944 m 13.885,-1.062 c 0.746,0.286 0.113,1.353 -0.802,1.353 -0.796,0 -1.153,-0.842 -0.526,-1.239 0.668,-0.423 0.551,-0.413 1.328,-0.114 m 13.071,0.961 c 1.221,1.156 2.887,4.798 2.681,5.86 -0.128,0.663 -0.649,0.737 -5.512,0.781 -7.118,0.066 -8.709,1.337 -5.998,4.796 2.388,3.048 6.632,3.396 8.739,0.717 0.91,-1.157 1.642,-1.245 1.642,-0.198 0,1.71 -5.367,4.429 -6.502,3.294 -0.252,-0.252 -0.983,-0.458 -1.625,-0.458 -1.501,0 -4.273,-2.655 -4.273,-4.093 0,-0.543 -0.202,-1.567 -0.449,-2.275 -0.798,-2.289 0.239,-5.815 2.336,-7.941 l 1.749,-1.774 3.082,0.15 c 2.615,0.127 3.241,0.3 4.13,1.141 m 17.38,-0.763 c 0.508,0.823 -0.774,1.106 -4.011,0.884 -5.54,-0.381 -7.881,3.348 -3.303,5.261 0.817,0.341 1.486,0.798 1.486,1.015 0,0.217 0.708,0.395 1.574,0.395 4.488,0 7.266,3.924 4.639,6.551 -0.971,0.971 -1.319,1.131 -3.513,1.619 -1.738,0.387 -1.367,-0.744 0.483,-1.47 3.039,-1.194 2.359,-4.452 -1.108,-5.307 -0.907,-0.224 -1.871,-0.629 -2.142,-0.9 -0.271,-0.271 -0.916,-0.493 -1.433,-0.493 -3.627,0 -5.194,-4.245 -2.437,-6.6 1.418,-1.211 9.14,-1.966 9.765,-0.955 m -140.447,0.982 c 0.562,0.857 0.586,1.131 0.146,1.661 -0.367,0.441 -0.563,2.349 -0.647,6.273 -0.139,6.582 -0.186,6.824 -1.223,6.27 -0.614,-0.329 -0.708,-0.686 -0.505,-1.918 0.138,-0.832 0.155,-3.763 0.038,-6.513 -0.279,-6.586 0.432,-8.458 2.191,-5.773 M 233.8,110 c 0.178,0.56 0.605,0.8 1.427,0.8 1.187,0 1.595,0.553 0.67,0.907 -1.115,0.428 -2.049,4.355 -2.02,8.492 0.026,3.754 -0.184,4.575 -1.177,4.595 -0.165,0.003 -0.3,-3.504 -0.3,-7.794 0,-6.504 0.095,-7.8 0.573,-7.8 0.315,0 0.687,0.36 0.827,0.8 m 20.402,1.6 c 0.221,1.21 0.601,2.56 0.845,3 0.586,1.059 1.039,6.2 0.546,6.2 -0.208,0 -0.474,-0.495 -0.591,-1.1 -0.117,-0.605 -0.49,-1.91 -0.828,-2.9 -0.708,-2.073 -2.174,-7.078 -2.174,-7.423 0,-1.526 1.86,0.352 2.202,2.223 m 19.092,-2.173 c 0.306,0.306 -0.486,3.112 -0.963,3.412 -0.209,0.131 -0.504,1.106 -0.656,2.166 -0.154,1.082 -0.518,2.009 -0.828,2.113 -0.445,0.148 -0.498,-0.199 -0.274,-1.767 0.589,-4.115 1.829,-6.815 2.721,-5.924 m 22.342,0.816 c 0.254,0.306 0.8,0.557 1.213,0.557 0.413,0 0.751,0.18 0.751,0.4 0,0.22 -0.175,0.4 -0.39,0.4 -1.078,0 -1.702,2.615 -1.804,7.567 -0.058,2.768 -0.217,5.078 -0.355,5.133 -1.387,0.553 -1.451,0.225 -1.451,-7.463 0,-8 0.235,-8.763 2.036,-6.594 m 11.528,0.064 c -1.891,0.872 -3.214,2.495 -3.09,3.789 l 0.126,1.304 4.381,0.2 c 4.977,0.227 5.958,-0.137 5.56,-2.063 -0.506,-2.449 -4.582,-4.336 -6.977,-3.23 m 4.622,1.734 c 2.536,2.227 2.038,2.808 -2.286,2.674 -3.56,-0.111 -3.705,-0.151 -3.835,-1.072 -0.366,-2.585 3.769,-3.667 6.121,-1.602 m -51.763,8.096 c -0.297,0.297 -0.423,-0.235 -0.423,-1.79 0,-2.878 0.563,-3.444 0.723,-0.727 0.067,1.152 -0.068,2.285 -0.3,2.517 M 219.8,117.599 c -0.44,0.189 -1.252,0.439 -1.804,0.556 -2.377,0.502 -2.895,4.16 -0.746,5.271 1.489,0.77 1.467,1.374 -0.05,1.374 -1.841,0 -2.8,-1.227 -2.8,-3.584 0,-2.76 1.333,-4.028 4.196,-3.989 1.489,0.02 1.798,0.116 1.204,0.372 m 61.4,-0.214 c 0,0.101 -0.679,0.367 -1.508,0.59 -2.98,0.803 -3.733,4.163 -1.224,5.46 2.296,1.187 3.105,2.165 1.791,2.165 -4.3,0 -6.662,-4.931 -3.572,-7.46 0.981,-0.803 4.513,-1.394 4.513,-0.755 m -11.735,4.707 c -0.318,0.719 -0.683,1.623 -0.81,2.008 -0.57,1.733 -2.287,0.487 -2.551,-1.851 -0.234,-2.08 -0.073,-2.218 1.157,-0.988 0.995,0.995 1.939,0.262 1.939,-1.505 0,-1.866 0.596,-2.414 0.723,-0.664 0.067,0.93 -0.139,2.28 -0.458,3 M 224,119.868 c 0,2.83 -5.479,4.401 -6.792,1.947 -0.857,-1.601 0.297,-2.73 3.299,-3.23 2.779,-0.462 3.493,-0.2 3.493,1.283 m 61.116,-1.129 c 1.684,1.069 -2.058,4.669 -4.455,4.285 -2.45,-0.392 -3.195,-2.072 -1.561,-3.521 1.131,-1.003 4.887,-1.48 6.016,-0.764 m -27.072,2.684 c 1.75,0.905 1.576,3.177 -0.244,3.177 -1.148,0 -1.205,-0.083 -1.322,-1.9 -0.136,-2.126 -0.113,-2.145 1.566,-1.277 m -83.752,0.701 c 0.264,0.577 1.037,1.108 2.065,1.416 0.903,0.271 1.643,0.665 1.643,0.876 0,0.211 0.45,0.384 1,0.384 0.55,0 1,0.18 1,0.4 0,0.22 -0.439,0.4 -0.976,0.4 -0.537,0 -1.088,-0.18 -1.224,-0.4 -0.136,-0.22 -0.875,-0.4 -1.642,-0.4 -2.011,0 -4.135,-2.29 -3.091,-3.333 0.466,-0.467 0.793,-0.292 1.225,0.657 m 149.012,1.292 c 1.253,0.31 1.755,0.885 1.229,1.411 -1.167,1.167 -4.958,-1.558 -4.346,-3.124 0.244,-0.624 0.372,-0.583 1.144,0.368 0.478,0.59 1.366,1.195 1.973,1.345"
       id="path1" /><path
       style="display:inline;fill:#000000;fill-rule:evenodd;stroke:none"
       inkscape:connector-curvature="0"
       d="m 40.862,18.125 c -0.797,0.961 -0.478,76.571 0.325,77.067 1.179,0.729 30.203,0.271 34.213,-0.539 3.844,-0.777 8.017,-2.091 9,-2.834 0.33,-0.25 1.066,-0.686 1.636,-0.969 C 91.425,88.165 96.64,76.706 94.832,71.52 94.594,70.838 94.4,69.812 94.4,69.24 94.398,64.395 86.072,56.4 81.027,56.4 c -3.802,0 -3.587,-1.384 0.539,-3.47 1.817,-0.918 4.009,-2.158 4.872,-2.756 7.564,-5.242 8.137,-20.237 1.013,-26.555 -2.137,-1.896 -5.622,-4.015 -7.04,-4.28 C 79.635,19.193 78.37,18.792 77.6,18.446 75.539,17.521 41.61,17.225 40.862,18.125 M 358.6,19.6 c -0.16,0.258 -0.11,0.65 0.11,0.87 0.266,0.266 0.496,0.243 0.69,-0.07 0.16,-0.258 0.11,-0.65 -0.11,-0.87 -0.266,-0.266 -0.496,-0.243 -0.69,0.07 m -4.523,5.23 c 0.079,0.236 0.314,0.43 0.523,0.43 0.209,0 0.445,-0.194 0.523,-0.43 0.079,-0.236 -0.156,-0.43 -0.523,-0.43 -0.367,0 -0.602,0.194 -0.523,0.43 M 71.731,29.743 c 5.405,2.225 7.795,7.92 5.507,13.124 -1.154,2.625 -4.626,5.533 -6.605,5.533 -0.513,0 -1.698,0.27 -2.633,0.6 -3.089,1.09 -11.423,0.842 -12.213,-0.364 -0.898,-1.37 -0.714,-18.519 0.211,-19.633 0.957,-1.153 12.446,-0.612 15.733,0.74 M 198.6,37.161 c -4.573,0.975 -10.251,6.174 -11.399,10.434 -0.357,1.327 -0.604,1.605 -1.426,1.605 -1.476,0 -1.796,-1.33 -1.449,-6.014 0.2,-2.695 0.159,-4.149 -0.123,-4.383 -0.512,-0.425 -10.696,-0.64 -11.344,-0.239 -0.694,0.428 -0.654,55.978 0.041,56.548 0.845,0.693 12.096,0.616 12.68,-0.087 0.357,-0.431 0.475,-3.713 0.449,-12.505 -0.057,-19.073 0.916,-24.519 5.171,-28.918 2.998,-3.1 5.11,-3.806 10.256,-3.429 l 3.744,0.275 v -6.344 c 0,-7.723 -0.496,-8.245 -6.6,-6.943 m 36.636,0.05 c -5.771,0.798 -12.037,3.768 -16.062,7.614 -1.526,1.458 -2.774,2.771 -2.774,2.919 0,0.147 -0.625,1.211 -1.389,2.362 -7.503,11.313 -5.56,29.452 4.169,38.92 10.265,9.99 31.63,10.135 41.844,0.283 2.733,-2.635 5.51,-6.226 5.968,-7.715 0.168,-0.547 0.461,-1.189 0.651,-1.427 2.373,-2.984 3.192,-16.096 1.391,-22.261 C 264.69,43.038 251.5,34.962 235.236,37.211 M 312,37.201 c -4.118,0.556 -8.403,2.756 -11.465,5.887 -3.144,3.215 -4.344,2.735 -3.904,-1.562 0.337,-3.291 0.178,-3.361 -7.334,-3.215 l -5.702,0.111 0.102,28.489 0.103,28.489 5.4,0.119 c 2.97,0.065 5.971,0.015 6.669,-0.112 l 1.269,-0.232 0.162,-16.487 c 0.176,-18.002 0.247,-18.594 2.874,-24.142 3.594,-7.591 13.67,-9.633 18.926,-3.835 0.715,0.789 1.301,1.627 1.302,1.862 0.002,0.235 0.317,0.967 0.7,1.627 0.633,1.089 0.708,3.017 0.812,20.8 0.103,17.693 0.178,19.649 0.776,20.1 0.814,0.614 12.331,0.713 12.704,0.109 0.765,-1.236 0.22,-41.708 -0.601,-44.742 C 332.026,40.253 324.003,35.583 312,37.201 m -164.811,1.904 c -0.391,0.497 -0.932,1.847 -1.203,3 -0.27,1.152 -0.661,2.31 -0.869,2.573 -0.209,0.264 -0.624,1.434 -0.923,2.6 -0.477,1.865 -4.19,13.276 -5.57,17.122 -1.453,4.051 -2.472,7.243 -3.866,12.109 -0.742,2.593 -1.05,3.149 -1.853,3.351 -1.313,0.329 -1.314,0.328 -3.486,-6.46 -1.056,-3.3 -2.257,-6.843 -2.669,-7.874 -0.413,-1.031 -0.75,-2.107 -0.75,-2.392 0,-0.285 -0.342,-1.422 -0.76,-2.526 -0.418,-1.105 -1.155,-3.268 -1.637,-4.808 -0.483,-1.54 -1.198,-3.7 -1.59,-4.8 -0.392,-1.1 -1.22,-3.62 -1.84,-5.6 -0.621,-1.98 -1.254,-3.87 -1.408,-4.2 -0.153,-0.33 -0.474,-1.095 -0.713,-1.7 l -0.435,-1.1 h -7.408 -7.409 v 0.911 c 0,0.501 0.249,1.267 0.554,1.702 0.305,0.435 0.745,1.42 0.978,2.189 0.234,0.769 0.898,2.658 1.478,4.198 2.001,5.321 4.265,11.606 4.826,13.4 0.31,0.99 0.738,2.16 0.953,2.6 0.214,0.44 0.642,1.52 0.952,2.4 0.309,0.88 1.319,3.67 2.245,6.2 0.925,2.53 1.923,5.32 2.217,6.2 0.294,0.88 1.179,3.219 1.966,5.197 0.787,1.979 1.431,3.752 1.431,3.94 0,0.188 0.243,0.909 0.54,1.603 0.843,1.965 2.169,5.556 2.46,6.66 0.145,0.55 0.545,1.621 0.888,2.38 0.584,1.288 0.566,1.581 -0.257,4.4 -1.8,6.159 -6.136,8.498 -13.91,7.502 -3.25,-0.416 -3.637,0.112 -3.987,5.436 -0.25,3.815 -0.246,3.838 0.707,4.037 7.351,1.53 7.973,1.572 12.348,0.825 10.07,-1.717 13.424,-5.847 20.606,-25.38 0.607,-1.65 1.441,-3.843 1.854,-4.874 0.413,-1.031 0.751,-2.099 0.751,-2.374 0,-0.275 0.377,-1.321 0.839,-2.326 1.472,-3.207 1.864,-4.162 2.964,-7.226 0.593,-1.65 1.33,-3.591 1.638,-4.314 0.307,-0.722 0.559,-1.535 0.559,-1.805 0,-0.271 0.336,-1.12 0.747,-1.887 0.41,-0.767 0.881,-2.024 1.046,-2.794 0.165,-0.77 0.44,-1.58 0.612,-1.8 0.171,-0.22 0.495,-1.03 0.718,-1.8 0.365,-1.256 1.235,-3.512 2.699,-7 0.277,-0.66 0.99,-2.55 1.584,-4.2 0.594,-1.65 1.331,-3.478 1.637,-4.062 0.306,-0.584 0.557,-1.396 0.557,-1.806 0,-0.409 0.332,-1.371 0.739,-2.138 0.406,-0.767 0.87,-1.934 1.031,-2.594 0.161,-0.66 0.58,-1.519 0.932,-1.909 1.107,-1.229 0.097,-1.476 -6.466,-1.585 -6.165,-0.103 -6.355,-0.082 -7.047,0.799 m 99.723,9.755 c 7.585,3.818 10.656,13.776 7.806,25.313 -3.91,15.831 -23.596,16.461 -28.536,0.914 -5.558,-17.491 6.864,-33.206 20.73,-26.227 M 69.431,60.327 c 6.867,0.923 10.976,5.405 10.963,11.962 -0.004,1.971 -0.217,3.477 -0.583,4.111 -0.317,0.55 -0.747,1.36 -0.955,1.8 -1.873,3.96 -6.7,5.734 -16.526,6.071 -7.758,0.267 -7.17,1.274 -7.116,-12.185 0.032,-7.992 0.173,-10.888 0.56,-11.488 0.583,-0.907 7.854,-1.05 13.657,-0.271 m 173.936,44.216 c -0.335,0.872 0,19.359 0.357,19.716 0.541,0.538 4.778,0.403 4.971,-0.159 0.115,-0.335 -0.275,-0.5 -1.185,-0.5 -2.639,0 -2.791,-0.371 -2.762,-6.741 0.031,-6.603 -0.061,-6.333 2.261,-6.681 2.598,-0.39 2.143,-1.378 -0.634,-1.378 -1.207,0 -1.588,-0.68 -1.773,-3.169 -0.042,-0.567 -0.105,-1.166 -0.139,-1.331 -0.106,-0.504 -0.875,-0.334 -1.096,0.243 m -67.58,4.682 c -4.197,1.221 -3.958,7.575 0.285,7.575 0.636,0 1.555,0.25 2.042,0.555 0.487,0.305 1.534,0.669 2.327,0.807 2.909,0.509 3.605,4.432 0.964,5.436 -1.584,0.602 -1.256,1.347 0.47,1.067 5.065,-0.822 3.82,-7.275 -1.5,-7.771 -1.223,-0.114 -2.315,-0.441 -2.495,-0.748 -0.176,-0.3 -0.631,-0.546 -1.011,-0.546 -2.251,0 -3.346,-3.082 -1.643,-4.624 0.668,-0.604 1.558,-0.764 4.64,-0.835 3.946,-0.09 4.396,-0.194 3.95,-0.914 -0.316,-0.512 -6.271,-0.513 -8.029,-0.002 m 17.589,0.162 c -0.718,0.544 -0.638,0.589 1.091,0.6 3.842,0.026 4.077,0.483 4.333,8.413 0.249,7.72 0.921,8.113 1.2,0.703 0.151,-4.009 0.371,-5.615 0.9,-6.583 0.814,-1.488 0.851,-1.72 0.279,-1.72 -0.232,0 -1.084,-0.45 -1.893,-1 -1.702,-1.156 -4.654,-1.363 -5.91,-0.413 m 10.024,-0.302 c -1.801,0.433 -1.477,0.915 0.62,0.92 4.904,0.013 5.755,1.417 5.515,9.108 -0.119,3.829 -0.034,5.317 0.311,5.449 0.87,0.334 0.954,-0.253 0.954,-6.655 0,-8.754 -1.29,-10.291 -7.4,-8.822 m 11.5,-0.041 c -1.315,0.585 -0.126,0.897 3.893,1.021 6.358,0.196 9.294,3.371 5.007,5.415 l -1.378,0.658 1.589,0.711 c 1.872,0.839 2.196,2.671 0.789,4.46 -0.44,0.56 -0.8,1.304 -0.8,1.654 0,0.451 -0.38,0.639 -1.3,0.643 -0.715,0.003 -1.54,0.158 -1.834,0.344 -1.046,0.664 0.495,0.782 2.286,0.177 1.494,-0.505 1.812,-0.507 2.386,-0.011 0.364,0.314 1.078,0.673 1.586,0.797 1.272,0.309 1.641,-0.782 0.529,-1.561 -0.801,-0.561 -0.854,-0.943 -0.867,-6.275 -0.02,-7.908 -0.13,-8.042 -6.681,-8.166 -2.588,-0.049 -4.93,0.011 -5.205,0.133 m 23.2,0.185 c -0.495,0.19 -0.9,0.531 -0.9,0.758 0,0.514 1.198,0.528 1.997,0.024 0.895,-0.566 0.001,-1.203 -1.097,-0.782 m 23.808,0.059 c -0.439,0.332 -0.708,1.177 -0.767,2.404 -0.098,2.067 0.211,2.716 0.946,1.981 1.288,-1.288 2.313,-0.569 2.319,1.627 0.003,1.155 0.181,2.37 0.394,2.7 0.644,0.997 0.479,-3.507 -0.181,-4.94 -0.32,-0.693 -0.635,-1.889 -0.7,-2.657 -0.13,-1.53 -0.898,-1.956 -2.011,-1.115 m 14.904,-0.123 c -1.014,0.674 -0.245,0.859 3.958,0.948 3.828,0.082 4.124,0.148 4.845,1.087 1.248,1.626 1.035,3.45 -0.496,4.242 l -1.28,0.662 1.38,0.649 c 1.749,0.823 2.097,2.752 0.811,4.492 -0.457,0.617 -0.83,1.296 -0.83,1.507 0,0.211 -0.538,0.503 -1.195,0.647 -0.658,0.144 -1.299,0.429 -1.424,0.632 -0.322,0.52 1.966,0.462 2.491,-0.063 0.31,-0.31 0.895,-0.197 2.064,0.4 2.249,1.147 2.977,0.504 1.401,-1.237 -0.545,-0.603 -0.669,-1.716 -0.7,-6.323 -0.05,-7.46 -0.285,-7.753 -6.345,-7.921 -2.251,-0.063 -4.357,0.063 -4.68,0.278 m 22.437,-0.004 c -0.627,0.397 -0.27,1.239 0.526,1.239 0.915,0 1.548,-1.067 0.802,-1.353 -0.777,-0.299 -0.66,-0.309 -1.328,0.114 m 5.438,1.33 c -2.097,2.126 -3.134,5.652 -2.336,7.941 0.247,0.708 0.449,1.732 0.449,2.275 0,1.438 2.772,4.093 4.273,4.093 0.642,0 1.373,0.206 1.625,0.458 1.135,1.135 6.502,-1.584 6.502,-3.294 0,-1.047 -0.732,-0.959 -1.642,0.198 -2.107,2.679 -6.351,2.331 -8.739,-0.717 -2.711,-3.459 -1.12,-4.73 5.998,-4.796 6.214,-0.057 6.263,-0.094 4.766,-3.581 -1.431,-3.333 -2.429,-4.025 -6.065,-4.201 l -3.082,-0.15 -1.749,1.774 M 323.8,109.16 c -5.162,0.774 -5.252,7.64 -0.1,7.64 0.517,0 1.162,0.222 1.433,0.493 0.271,0.271 1.235,0.676 2.142,0.9 3.467,0.855 4.147,4.113 1.108,5.307 -1.85,0.726 -2.221,1.857 -0.483,1.47 2.194,-0.488 2.542,-0.648 3.513,-1.619 2.627,-2.627 -0.151,-6.551 -4.639,-6.551 -0.866,0 -1.574,-0.178 -1.574,-0.395 0,-0.217 -0.669,-0.674 -1.486,-1.015 -4.578,-1.913 -2.237,-5.642 3.303,-5.261 3.237,0.222 4.519,-0.061 4.011,-0.884 -0.288,-0.466 -4.366,-0.514 -7.228,-0.085 m -135.321,0.94 c -0.165,0.495 -0.205,3.15 -0.089,5.9 0.117,2.75 0.1,5.681 -0.038,6.513 -0.203,1.232 -0.109,1.589 0.505,1.918 1.037,0.554 1.084,0.312 1.223,-6.27 0.084,-3.924 0.28,-5.832 0.647,-6.273 0.44,-0.53 0.416,-0.804 -0.146,-1.661 -0.83,-1.267 -1.703,-1.319 -2.102,-0.127 M 232.4,117 c 0,4.29 0.135,7.797 0.3,7.794 0.993,-0.02 1.203,-0.841 1.177,-4.595 -0.029,-4.137 0.905,-8.064 2.02,-8.492 0.925,-0.354 0.517,-0.907 -0.67,-0.907 -0.822,0 -1.249,-0.24 -1.427,-0.8 -0.14,-0.44 -0.512,-0.8 -0.827,-0.8 -0.478,0 -0.573,1.296 -0.573,7.8 m 19.6,-7.623 c 0,0.345 1.466,5.35 2.174,7.423 0.338,0.99 0.711,2.295 0.828,2.9 0.117,0.605 0.383,1.1 0.591,1.1 0.493,0 0.04,-5.141 -0.546,-6.2 -0.244,-0.44 -0.624,-1.79 -0.845,-3 C 253.86,109.729 252,107.851 252,109.377 m 19.526,1.926 c -1.033,3.215 -1.363,6.043 -0.679,5.815 0.31,-0.104 0.674,-1.031 0.828,-2.113 0.152,-1.06 0.447,-2.035 0.656,-2.166 0.477,-0.3 1.269,-3.106 0.963,-3.412 -0.611,-0.611 -1.154,-0.034 -1.768,1.876 m 22.074,5.534 c 0,7.688 0.064,8.016 1.451,7.463 0.138,-0.055 0.297,-2.365 0.355,-5.133 0.102,-4.952 0.726,-7.567 1.804,-7.567 0.215,0 0.39,-0.18 0.39,-0.4 0,-0.22 -0.338,-0.4 -0.751,-0.4 -0.413,0 -0.959,-0.251 -1.213,-0.557 -1.801,-2.169 -2.036,-1.406 -2.036,6.594 m 19.179,-5.457 c 3.189,3.055 1.76,4.492 -4.198,4.22 l -4.381,-0.2 -0.126,-1.304 c -0.124,-1.294 1.199,-2.917 3.09,-3.789 1.388,-0.641 4.434,-0.059 5.615,1.073 m -52.879,4.45 c -0.165,0.167 -0.3,1.299 -0.3,2.517 0,1.555 0.126,2.087 0.423,1.79 0.232,-0.232 0.367,-1.365 0.3,-2.517 -0.068,-1.151 -0.258,-1.957 -0.423,-1.79 m -44.404,2.386 c -2.294,2.128 -1.141,6.584 1.704,6.584 1.517,0 1.539,-0.604 0.05,-1.374 -2.149,-1.111 -1.631,-4.769 0.746,-5.271 2.374,-0.501 2.632,-0.9 0.6,-0.928 -1.615,-0.022 -2.217,0.171 -3.1,0.989 m 61.191,-0.076 c -3.09,2.529 -0.728,7.46 3.572,7.46 1.314,0 0.505,-0.978 -1.791,-2.165 -2.509,-1.297 -1.756,-4.657 1.224,-5.46 1.971,-0.53 1.908,-0.778 -0.192,-0.761 -1.161,0.01 -2.053,0.304 -2.813,0.926 m -7.187,-0.007 c -0.165,0.403 -0.3,1.133 -0.3,1.623 0,1.767 -0.944,2.5 -1.939,1.505 -1.23,-1.23 -1.391,-1.092 -1.157,0.988 0.264,2.338 1.981,3.584 2.551,1.851 0.127,-0.385 0.492,-1.289 0.81,-2.008 0.319,-0.72 0.525,-2.07 0.458,-3 -0.088,-1.212 -0.208,-1.484 -0.423,-0.959 m -13.022,4.567 c 0.117,1.817 0.174,1.9 1.322,1.9 1.82,0 1.994,-2.272 0.244,-3.177 -1.679,-0.868 -1.702,-0.849 -1.566,1.277 m -83.411,-1.233 c -1.044,1.043 1.08,3.333 3.091,3.333 0.767,0 1.506,0.18 1.642,0.4 0.136,0.22 0.687,0.4 1.224,0.4 0.537,0 0.976,-0.18 0.976,-0.4 0,-0.22 -0.45,-0.4 -1,-0.4 -0.55,0 -1,-0.173 -1,-0.384 0,-0.211 -0.74,-0.605 -1.643,-0.876 -1.028,-0.308 -1.801,-0.839 -2.065,-1.416 -0.432,-0.949 -0.759,-1.124 -1.225,-0.657 m 147.12,0.236 c -0.612,1.566 3.179,4.291 4.346,3.124 0.526,-0.526 0.024,-1.101 -1.229,-1.411 -0.607,-0.15 -1.495,-0.755 -1.973,-1.345 -0.772,-0.951 -0.9,-0.992 -1.144,-0.368"
       id="path0" /></g></svg>