<svg id="svg" version="1.1" width="400" height="400.70175438596493" viewBox="0 0 400 400.70175438596493" xmlns="http://www.w3.org/2000/svg" xmlns:xlink="http://www.w3.org/1999/xlink" ><g id="svgg"><path id="path0" d="M245.500 0.282 C 246.063 0.391,246.400 0.745,246.400 1.228 C 246.400 2.189,244.359 2.315,243.600 1.400 C 243.326 1.070,242.914 0.800,242.684 0.800 C 242.455 0.800,242.380 0.914,242.519 1.053 C 242.658 1.192,242.592 1.642,242.372 2.053 C 241.893 2.948,240.468 3.042,240.145 2.200 C 239.795 1.290,238.429 1.424,238.670 2.345 C 238.913 3.274,237.832 3.752,236.771 3.184 C 236.159 2.857,236.000 2.904,236.000 3.412 C 236.000 3.875,235.695 4.018,234.900 3.927 C 234.179 3.844,233.816 3.577,233.847 3.151 C 233.878 2.726,233.658 2.564,233.208 2.682 C 232.713 2.812,232.577 3.147,232.720 3.892 C 232.904 4.856,232.837 4.907,231.695 4.679 C 230.793 4.499,230.409 4.599,230.231 5.063 C 230.077 5.464,229.659 5.628,229.074 5.516 C 228.570 5.420,227.941 5.573,227.676 5.857 C 227.001 6.579,225.889 6.066,226.130 5.144 C 226.238 4.734,226.162 4.500,225.963 4.623 C 225.763 4.746,225.600 5.287,225.600 5.824 C 225.600 6.598,225.394 6.800,224.600 6.800 C 224.050 6.800,223.600 7.001,223.600 7.247 C 223.600 7.505,223.187 7.614,222.620 7.506 C 221.993 7.386,221.559 7.530,221.415 7.905 C 221.281 8.254,220.877 8.409,220.414 8.288 C 219.988 8.176,219.574 8.278,219.496 8.513 C 219.417 8.749,219.127 8.802,218.849 8.630 C 218.572 8.459,218.446 8.058,218.568 7.739 C 218.693 7.415,218.616 7.266,218.395 7.403 C 218.178 7.537,218.000 8.087,218.000 8.624 C 218.000 9.161,217.768 9.600,217.485 9.600 C 217.201 9.600,216.258 9.963,215.388 10.406 C 214.519 10.849,213.581 11.125,213.304 11.018 C 213.027 10.912,212.800 10.999,212.800 11.213 C 212.800 11.426,212.455 11.600,212.033 11.600 C 211.612 11.600,211.198 11.806,211.114 12.057 C 211.002 12.393,210.711 12.381,210.020 12.011 C 209.184 11.563,209.108 11.584,209.344 12.198 C 209.533 12.691,209.447 12.827,209.044 12.672 C 208.705 12.542,208.398 12.765,208.277 13.228 C 208.064 14.041,206.631 14.298,206.200 13.600 C 205.783 12.925,205.264 13.157,205.465 13.928 C 205.780 15.131,204.642 15.763,203.117 15.231 C 202.091 14.873,201.921 14.881,202.309 15.269 C 203.025 15.985,202.911 16.400,202.000 16.400 C 201.560 16.400,201.199 16.535,201.197 16.700 C 201.186 17.885,197.104 19.317,196.637 18.300 C 196.511 18.025,196.501 18.184,196.616 18.654 C 196.839 19.568,194.876 21.600,193.769 21.600 C 193.456 21.600,193.200 21.780,193.200 22.000 C 193.200 22.220,192.956 22.400,192.658 22.400 C 192.361 22.400,191.655 22.805,191.091 23.300 C 188.586 25.499,187.898 26.000,187.380 26.000 C 187.077 26.000,186.644 26.344,186.419 26.764 C 186.194 27.185,185.333 27.936,184.505 28.434 C 183.677 28.932,182.385 29.938,181.633 30.669 C 180.857 31.425,179.853 32.000,179.310 32.000 C 178.783 32.000,178.454 32.163,178.577 32.363 C 178.700 32.562,175.966 35.580,172.500 39.068 C 169.035 42.557,165.681 46.174,165.046 47.106 C 164.411 48.038,163.760 48.800,163.599 48.800 C 163.438 48.800,162.818 49.538,162.221 50.440 C 161.346 51.762,160.949 52.045,160.178 51.898 C 159.562 51.780,158.971 51.991,158.521 52.487 C 157.988 53.077,157.959 53.229,158.402 53.130 C 159.539 52.875,159.312 54.749,158.053 56.008 C 157.392 56.670,156.737 57.569,156.598 58.006 C 156.460 58.443,156.178 58.800,155.973 58.800 C 155.768 58.800,155.600 59.070,155.600 59.400 C 155.600 59.730,155.240 60.360,154.800 60.800 C 154.360 61.240,154.000 61.767,154.000 61.971 C 154.000 62.176,153.775 62.583,153.500 62.878 C 153.225 63.172,152.657 64.084,152.237 64.906 C 151.795 65.771,151.179 66.400,150.774 66.400 C 150.256 66.400,150.133 66.622,150.300 67.260 C 150.433 67.771,150.290 68.298,149.946 68.560 C 149.627 68.802,149.032 69.720,148.624 70.600 C 148.216 71.480,147.773 72.290,147.640 72.400 C 147.507 72.510,147.137 73.106,146.818 73.725 C 146.431 74.477,146.006 74.790,145.542 74.669 C 145.149 74.566,144.530 74.857,144.123 75.336 C 143.618 75.930,143.592 76.038,144.037 75.697 C 144.387 75.427,144.792 75.325,144.937 75.470 C 145.296 75.829,145.270 77.102,144.900 77.267 C 144.608 77.396,144.171 78.148,142.085 82.107 C 141.532 83.155,140.680 84.444,140.192 84.971 C 139.704 85.497,139.198 86.353,139.068 86.872 C 138.938 87.391,138.486 88.186,138.064 88.639 C 137.643 89.091,137.165 89.898,137.002 90.431 C 136.839 90.964,136.448 91.694,136.134 92.052 C 135.820 92.411,135.239 93.311,134.845 94.052 C 134.450 94.794,133.621 96.348,133.003 97.507 C 132.385 98.665,131.457 100.069,130.940 100.627 C 130.423 101.185,130.000 101.888,130.000 102.190 C 130.000 102.492,129.550 103.273,129.000 103.927 C 128.450 104.581,128.000 105.378,128.000 105.699 C 128.000 106.020,127.550 106.769,127.000 107.362 C 126.450 107.956,126.000 108.636,126.000 108.873 C 126.000 109.111,125.595 109.954,125.100 110.747 C 123.412 113.451,123.213 113.800,122.960 114.500 C 122.821 114.885,122.548 115.200,122.353 115.200 C 122.159 115.200,122.000 115.470,122.000 115.800 C 122.000 116.130,121.840 116.400,121.643 116.400 C 121.447 116.400,121.182 116.819,121.053 117.331 C 120.924 117.843,120.384 118.732,119.852 119.306 C 119.319 119.881,118.976 120.442,119.088 120.554 C 119.392 120.858,117.603 123.600,117.101 123.600 C 116.862 123.600,116.779 123.712,116.916 123.850 C 117.166 124.100,116.262 125.953,114.793 128.200 C 114.362 128.860,113.885 129.670,113.734 130.000 C 113.583 130.330,113.041 130.996,112.530 131.481 C 112.018 131.965,111.600 132.720,111.600 133.157 C 111.600 133.595,111.455 134.042,111.278 134.152 C 111.101 134.261,110.449 135.352,109.830 136.576 C 109.211 137.799,108.462 138.800,108.165 138.800 C 107.868 138.800,107.716 139.036,107.826 139.324 C 107.937 139.612,107.616 140.475,107.114 141.241 C 106.611 142.008,105.873 143.272,105.473 144.051 C 105.073 144.829,104.338 145.907,103.838 146.445 C 103.339 146.983,102.818 147.872,102.681 148.420 C 102.543 148.968,102.071 149.802,101.632 150.274 C 101.192 150.746,100.723 151.567,100.590 152.099 C 100.292 153.285,98.572 155.200,97.804 155.200 C 97.494 155.200,97.096 155.442,96.920 155.737 C 96.281 156.810,94.512 157.643,93.442 157.375 C 92.538 157.148,92.400 157.239,92.400 158.063 C 92.400 158.975,88.866 161.600,87.637 161.600 C 87.397 161.600,87.200 161.765,87.200 161.966 C 87.200 162.278,86.120 163.037,82.334 165.387 C 81.968 165.614,80.667 166.396,79.443 167.125 C 78.219 167.853,77.112 168.618,76.985 168.825 C 76.857 169.031,76.403 169.200,75.976 169.200 C 75.549 169.200,75.200 169.384,75.200 169.609 C 75.200 169.834,74.075 170.732,72.700 171.606 C 71.325 172.480,69.848 173.466,69.419 173.798 C 68.989 174.129,68.404 174.400,68.119 174.400 C 67.833 174.400,67.600 174.577,67.600 174.792 C 67.600 175.008,67.142 175.300,66.583 175.440 C 66.024 175.580,65.065 176.169,64.452 176.748 C 63.155 177.973,58.680 180.800,58.039 180.800 C 57.797 180.800,57.600 180.977,57.600 181.192 C 57.600 181.408,57.150 181.698,56.600 181.836 C 56.050 181.974,55.600 182.230,55.600 182.405 C 55.600 182.581,54.766 183.236,53.746 183.862 C 52.726 184.488,51.485 185.270,50.989 185.600 C 50.492 185.930,49.081 186.796,47.852 187.525 C 46.622 188.253,45.512 189.018,45.385 189.225 C 45.257 189.431,44.823 189.600,44.419 189.600 C 44.016 189.600,43.584 189.865,43.460 190.189 C 42.848 191.783,38.000 193.881,38.000 192.551 C 38.000 192.013,37.895 191.989,37.385 192.412 C 37.047 192.693,36.822 193.239,36.885 193.626 C 37.009 194.388,35.416 196.000,34.539 196.000 C 34.242 196.000,34.000 196.150,34.000 196.332 C 34.000 196.515,33.505 196.920,32.900 197.232 C 32.295 197.544,31.710 197.905,31.600 198.036 C 31.117 198.609,24.951 202.398,24.500 202.399 C 24.225 202.400,24.000 202.577,24.000 202.792 C 24.000 203.008,23.550 203.298,23.000 203.436 C 22.450 203.574,22.000 203.823,22.000 203.990 C 22.000 204.323,16.850 207.704,14.011 209.235 C 13.027 209.766,12.037 210.415,11.811 210.678 C 11.585 210.941,11.140 211.211,10.821 211.278 C 10.503 211.345,9.873 211.776,9.421 212.234 C 8.970 212.693,7.700 213.587,6.600 214.221 C 5.500 214.855,4.362 215.604,4.071 215.886 C 3.781 216.169,3.378 216.400,3.176 216.400 C 1.397 216.400,0.861 218.428,2.400 219.336 C 3.060 219.726,3.600 220.226,3.600 220.446 C 3.600 220.667,3.780 220.736,3.999 220.601 C 4.401 220.352,6.885 221.541,7.133 222.100 C 7.207 222.265,7.522 222.400,7.833 222.400 C 8.145 222.400,8.400 222.560,8.400 222.757 C 8.400 222.953,8.878 223.233,9.461 223.380 C 10.045 223.526,11.260 224.132,12.161 224.725 C 13.063 225.319,14.834 226.343,16.099 227.002 C 17.363 227.661,18.398 228.335,18.399 228.500 C 18.399 228.665,18.670 228.800,19.000 228.800 C 19.330 228.800,19.600 228.980,19.600 229.200 C 19.600 229.420,19.918 229.600,20.307 229.600 C 20.696 229.600,21.677 230.050,22.486 230.600 C 23.295 231.150,24.132 231.600,24.345 231.600 C 24.559 231.600,24.793 231.735,24.867 231.900 C 24.940 232.065,26.035 232.717,27.300 233.349 C 28.565 233.981,29.600 234.656,29.600 234.849 C 29.600 235.042,29.870 235.200,30.200 235.200 C 30.530 235.200,30.800 235.380,30.800 235.600 C 30.800 235.820,31.088 236.000,31.441 236.000 C 32.214 236.000,35.999 238.076,36.000 238.500 C 36.000 238.665,36.283 238.800,36.629 238.800 C 37.358 238.800,40.800 240.742,40.800 241.153 C 40.800 241.305,41.115 241.455,41.500 241.486 C 42.291 241.550,47.200 244.382,47.200 244.775 C 47.200 244.915,47.556 245.057,47.991 245.089 C 48.426 245.122,49.551 245.663,50.491 246.292 C 51.431 246.920,52.650 247.648,53.200 247.908 C 55.910 249.190,58.195 250.798,58.142 251.386 C 58.101 251.841,58.223 251.913,58.563 251.631 C 59.038 251.237,59.484 251.392,62.000 252.829 C 62.550 253.143,63.090 253.490,63.200 253.600 C 63.310 253.711,64.210 254.210,65.200 254.711 C 66.190 255.211,68.080 256.249,69.400 257.018 C 70.720 257.787,72.115 258.523,72.500 258.655 C 72.885 258.786,73.200 259.052,73.200 259.247 C 73.200 259.441,73.470 259.600,73.800 259.600 C 74.130 259.600,74.400 259.760,74.400 259.957 C 74.400 260.153,74.878 260.433,75.461 260.580 C 76.045 260.726,77.260 261.332,78.161 261.925 C 79.063 262.519,80.834 263.543,82.099 264.202 C 83.363 264.861,84.398 265.535,84.399 265.700 C 84.399 265.865,84.670 266.000,85.000 266.000 C 85.330 266.000,85.600 266.180,85.600 266.400 C 85.600 266.620,85.915 266.801,86.300 266.802 C 86.685 266.803,87.810 267.348,88.800 268.014 C 89.790 268.679,91.403 269.624,92.384 270.112 C 95.145 271.486,95.600 271.766,95.600 272.095 C 95.600 272.263,95.923 272.400,96.319 272.400 C 97.331 272.400,103.200 276.328,103.200 277.005 C 103.200 277.668,100.864 281.744,100.380 281.926 C 100.196 281.995,100.144 282.309,100.264 282.622 C 100.385 282.937,100.189 283.306,99.830 283.444 C 99.420 283.601,99.261 283.963,99.404 284.414 C 99.530 284.809,99.445 285.248,99.216 285.390 C 98.987 285.531,98.800 285.997,98.800 286.424 C 98.800 286.851,98.620 287.200,98.400 287.200 C 98.180 287.200,98.000 287.566,98.000 288.013 C 98.000 288.459,97.733 288.927,97.407 289.053 C 96.967 289.221,96.916 289.469,97.207 290.014 C 97.767 291.060,97.721 291.174,96.547 291.620 C 95.516 292.012,95.510 292.037,96.231 292.835 C 96.863 293.532,96.885 293.702,96.384 294.018 C 95.541 294.552,95.282 294.488,95.076 293.700 C 94.930 293.144,94.883 293.175,94.846 293.851 C 94.821 294.319,95.070 294.926,95.400 295.200 C 96.296 295.943,96.158 297.465,95.171 297.723 C 94.404 297.924,94.387 298.009,94.942 298.870 C 95.703 300.050,95.356 302.034,94.343 302.299 C 93.191 302.600,93.197 314.800,94.350 314.800 C 94.871 314.800,95.177 315.184,95.351 316.057 C 95.628 317.441,95.000 318.562,94.135 318.230 C 93.740 318.079,93.769 318.286,94.245 319.012 C 94.601 319.555,95.120 320.000,95.399 320.000 C 96.088 320.000,96.387 321.323,95.897 322.199 C 95.597 322.734,95.660 323.002,96.149 323.275 C 96.965 323.732,96.994 324.750,96.200 325.055 C 95.314 325.395,95.471 325.926,96.500 326.072 C 97.107 326.158,97.404 326.478,97.413 327.054 C 97.420 327.524,97.620 328.154,97.858 328.454 C 98.095 328.754,98.435 329.540,98.612 330.200 C 99.013 331.693,98.971 331.568,99.550 332.969 C 99.815 333.612,99.941 334.377,99.829 334.669 C 99.717 334.961,99.877 335.200,100.186 335.200 C 100.494 335.200,100.872 335.605,101.026 336.100 C 101.179 336.595,101.641 337.478,102.052 338.062 C 102.464 338.646,102.800 339.501,102.800 339.962 C 102.800 340.423,102.980 340.800,103.200 340.800 C 103.420 340.800,103.600 341.005,103.600 341.256 C 103.600 341.507,103.860 341.912,104.178 342.156 C 104.496 342.400,104.811 342.870,104.878 343.200 C 104.945 343.530,105.315 344.035,105.700 344.323 C 106.514 344.931,106.642 346.400,105.880 346.400 C 105.594 346.400,105.102 346.175,104.786 345.900 C 104.470 345.625,104.621 345.869,105.121 346.442 C 105.747 347.160,106.315 347.429,106.947 347.308 C 107.615 347.180,108.057 347.427,108.575 348.217 C 108.966 348.814,111.066 351.084,113.243 353.262 C 115.419 355.440,117.204 357.352,117.209 357.511 C 117.213 357.670,117.798 358.070,118.509 358.400 C 119.526 358.873,119.785 359.224,119.730 360.059 C 119.685 360.745,120.021 361.449,120.685 362.059 C 121.680 362.974,121.696 362.976,121.253 362.124 C 120.989 361.616,120.951 361.154,121.163 361.023 C 121.631 360.733,122.800 361.176,122.800 361.643 C 122.800 361.839,123.070 362.000,123.400 362.000 C 123.730 362.000,124.327 362.315,124.726 362.700 C 125.125 363.085,126.115 363.743,126.926 364.163 C 127.737 364.583,128.400 365.055,128.400 365.213 C 128.400 365.371,128.955 365.611,129.634 365.747 C 130.312 365.882,131.347 366.331,131.934 366.744 C 132.520 367.157,133.450 367.620,134.000 367.773 C 134.550 367.925,135.360 368.203,135.800 368.389 C 136.240 368.575,136.915 368.828,137.300 368.951 C 137.691 369.076,138.005 369.578,138.012 370.087 C 138.023 370.900,138.069 370.923,138.432 370.300 C 139.039 369.257,139.722 369.449,139.502 370.600 C 139.287 371.728,139.659 371.893,140.400 371.000 C 141.115 370.138,142.400 370.235,142.400 371.151 C 142.400 371.564,142.651 372.110,142.958 372.365 C 143.400 372.732,143.504 372.683,143.458 372.129 C 143.426 371.745,143.715 371.366,144.100 371.286 C 144.536 371.196,144.800 371.384,144.800 371.785 C 144.800 372.308,144.952 372.347,145.615 371.992 C 146.608 371.460,148.000 371.838,148.000 372.640 C 148.000 373.543,149.173 373.789,149.746 373.007 C 150.355 372.174,151.740 372.344,151.919 373.274 C 152.002 373.704,151.721 374.000,151.123 374.115 C 150.616 374.212,151.406 374.316,152.880 374.346 C 154.941 374.387,155.642 374.255,155.912 373.771 C 156.492 372.735,165.834 372.634,166.853 373.653 C 167.409 374.209,168.138 374.388,169.700 374.353 C 171.321 374.316,171.534 374.248,170.633 374.053 C 169.991 373.914,169.393 373.582,169.305 373.315 C 169.075 372.625,171.169 372.188,172.055 372.741 C 173.045 373.360,173.600 373.319,173.600 372.627 C 173.600 371.838,175.109 371.426,175.824 372.020 C 176.300 372.415,176.315 372.621,175.905 373.117 C 175.456 373.660,175.501 373.666,176.300 373.168 C 176.795 372.860,177.200 372.291,177.200 371.904 C 177.200 371.047,177.910 370.994,178.784 371.786 C 179.361 372.308,179.439 372.279,179.496 371.522 C 179.574 370.490,180.230 370.030,181.244 370.296 C 181.684 370.411,182.000 370.287,182.000 370.000 C 182.000 369.690,182.371 369.578,183.000 369.698 C 183.550 369.803,184.000 369.734,184.000 369.545 C 184.000 369.355,184.201 369.200,184.447 369.200 C 184.692 369.200,184.803 369.547,184.692 369.970 C 184.551 370.510,184.656 370.677,185.045 370.527 C 185.350 370.410,185.600 369.884,185.600 369.357 C 185.600 368.603,185.812 368.400,186.600 368.400 C 187.150 368.400,187.600 368.208,187.600 367.973 C 187.600 367.728,187.941 367.654,188.400 367.800 C 188.932 367.969,189.200 367.872,189.200 367.511 C 189.200 366.983,193.017 364.800,193.940 364.800 C 194.193 364.800,194.400 364.605,194.400 364.367 C 194.400 364.128,194.614 364.005,194.875 364.092 C 195.136 364.179,195.663 363.969,196.046 363.625 C 197.421 362.391,197.985 361.989,198.985 361.534 C 199.543 361.280,200.000 360.920,200.000 360.736 C 200.000 360.551,200.263 360.400,200.585 360.400 C 200.906 360.400,201.882 359.680,202.753 358.800 C 204.785 356.747,206.854 356.765,205.107 358.820 C 204.835 359.139,206.815 357.243,209.507 354.606 C 212.198 351.970,214.400 349.729,214.400 349.628 C 214.400 349.526,213.770 350.054,212.999 350.801 C 211.994 351.775,211.476 352.036,211.165 351.725 C 210.434 350.994,212.375 348.368,213.600 348.432 C 215.177 348.515,215.330 348.438,214.816 347.819 C 214.304 347.202,214.600 345.600,215.227 345.600 C 215.432 345.600,215.600 345.330,215.600 345.000 C 215.600 344.670,215.915 344.069,216.300 343.665 C 216.685 343.261,217.199 342.586,217.443 342.165 C 218.022 341.164,218.950 341.007,219.723 341.780 C 220.064 342.121,220.536 342.400,220.771 342.400 C 221.007 342.400,221.200 342.580,221.200 342.800 C 221.200 343.020,221.470 343.200,221.800 343.200 C 222.130 343.200,222.400 343.380,222.400 343.600 C 222.400 343.820,222.731 344.000,223.134 344.000 C 224.117 344.000,228.389 346.861,228.395 347.524 C 228.398 347.818,228.198 347.922,227.938 347.762 C 227.650 347.584,227.585 347.652,227.766 347.945 C 227.925 348.202,228.223 348.309,228.428 348.183 C 228.632 348.056,228.800 348.178,228.800 348.453 C 228.800 348.733,229.040 348.624,229.346 348.207 C 229.929 347.409,233.600 349.008,233.600 350.060 C 233.600 350.294,233.859 350.386,234.176 350.264 C 234.493 350.143,235.401 350.484,236.194 351.022 C 236.987 351.560,237.793 352.000,237.984 352.000 C 238.176 352.000,238.403 352.209,238.488 352.463 C 238.573 352.718,239.052 352.989,239.552 353.066 C 240.053 353.142,241.246 353.743,242.203 354.402 C 243.161 355.061,244.137 355.600,244.372 355.600 C 244.607 355.600,244.800 355.857,244.800 356.171 C 244.800 356.485,245.115 356.824,245.500 356.924 C 246.014 357.058,245.954 357.120,245.276 357.154 C 244.732 357.181,244.461 357.375,244.616 357.627 C 244.761 357.861,244.982 357.951,245.108 357.826 C 245.233 357.701,245.696 357.914,246.136 358.299 C 246.577 358.685,246.819 358.795,246.673 358.545 C 246.107 357.571,248.109 357.661,249.647 358.678 C 251.026 359.591,251.991 361.310,250.700 360.555 C 250.425 360.394,250.543 360.653,250.962 361.131 C 251.847 362.140,252.060 362.223,251.760 361.440 C 251.642 361.133,251.742 360.759,251.982 360.611 C 252.445 360.325,254.800 361.207,254.800 361.666 C 254.800 361.815,255.316 362.050,255.946 362.188 C 256.576 362.327,257.469 362.791,257.929 363.220 C 258.390 363.649,258.928 364.000,259.125 364.000 C 259.322 364.000,259.948 364.431,260.517 364.958 C 261.085 365.485,261.629 365.837,261.726 365.741 C 261.982 365.485,264.800 366.890,264.800 367.274 C 264.800 367.453,265.070 367.600,265.400 367.600 C 265.730 367.600,266.000 367.780,266.000 368.000 C 266.000 368.220,266.251 368.400,266.557 368.400 C 266.864 368.400,267.218 368.670,267.345 369.000 C 267.471 369.330,268.031 369.600,268.587 369.600 C 269.144 369.600,269.600 369.780,269.600 370.000 C 269.600 370.220,269.868 370.400,270.195 370.400 C 271.024 370.400,272.411 371.658,272.114 372.139 C 271.972 372.369,272.134 372.434,272.498 372.295 C 272.943 372.124,273.210 372.367,273.413 373.127 C 273.570 373.717,273.781 373.975,273.883 373.700 C 274.100 373.108,276.000 373.019,276.000 373.600 C 276.000 373.820,276.270 374.000,276.600 374.000 C 276.930 374.000,277.200 374.180,277.200 374.400 C 277.200 374.620,277.564 374.800,278.009 374.800 C 278.791 374.800,282.063 376.691,282.333 377.300 C 282.407 377.465,282.722 377.600,283.033 377.600 C 283.345 377.600,283.600 377.780,283.600 378.000 C 283.600 378.220,283.915 378.401,284.300 378.401 C 284.685 378.402,285.630 378.788,286.400 379.259 C 287.723 380.067,288.807 380.669,294.300 383.647 C 295.565 384.333,297.078 385.233,297.662 385.647 C 298.246 386.061,298.906 386.400,299.128 386.400 C 299.351 386.400,299.593 386.535,299.667 386.700 C 299.740 386.865,300.610 387.402,301.600 387.894 C 302.590 388.385,304.480 389.424,305.800 390.202 C 307.120 390.979,308.515 391.723,308.900 391.855 C 309.285 391.986,309.600 392.252,309.600 392.447 C 309.600 392.641,309.870 392.800,310.200 392.800 C 310.530 392.800,310.800 392.960,310.800 393.157 C 310.800 393.353,311.278 393.633,311.861 393.780 C 312.445 393.926,313.660 394.532,314.561 395.127 C 315.463 395.721,317.235 396.731,318.500 397.370 C 319.765 398.010,320.818 398.728,320.840 398.967 C 320.916 399.791,321.520 397.396,321.560 396.114 C 321.586 395.286,321.872 394.682,322.364 394.419 C 323.464 393.831,323.726 389.468,322.700 388.829 C 321.973 388.377,321.836 386.592,322.347 384.233 C 322.641 382.875,323.449 382.431,323.720 383.478 C 323.823 383.875,323.928 382.824,323.954 381.143 C 323.991 378.669,323.877 378.038,323.354 377.838 C 322.306 377.436,322.752 372.530,323.922 371.582 C 325.073 370.651,325.131 367.947,324.030 366.548 C 323.204 365.497,323.256 361.573,324.111 360.490 C 324.741 359.693,324.982 360.257,325.237 363.132 C 325.424 365.241,325.487 364.702,325.537 360.562 C 325.595 355.748,325.534 355.264,324.781 354.583 C 323.743 353.644,324.017 349.797,325.195 348.769 C 326.285 347.818,326.466 343.832,325.448 343.197 C 324.529 342.624,324.735 338.999,325.770 337.521 L 326.400 336.622 326.475 337.611 C 326.516 338.155,326.651 337.070,326.775 335.200 C 326.973 332.210,326.916 331.765,326.300 331.513 C 325.053 331.001,325.513 326.221,326.843 325.873 C 327.925 325.590,327.905 322.313,326.813 320.925 C 326.040 319.942,325.994 318.449,326.641 315.272 C 327.028 313.368,327.802 314.684,328.028 317.631 C 328.216 320.081,328.268 319.650,328.328 315.162 C 328.394 310.140,328.337 309.667,327.581 308.983 C 326.520 308.023,326.818 304.194,328.036 303.136 C 328.593 302.651,328.800 301.943,328.800 300.516 C 328.800 299.440,329.025 298.333,329.300 298.056 C 329.701 297.653,329.674 297.601,329.164 297.795 C 328.002 298.237,327.468 296.984,327.760 294.499 C 328.056 291.981,328.602 291.041,329.211 292.003 C 329.468 292.410,329.590 291.690,329.594 289.743 C 329.599 287.568,329.457 286.831,329.000 286.655 C 327.730 286.168,329.269 281.123,331.152 279.600 C 331.289 279.490,331.738 278.770,332.152 278.000 C 335.226 272.277,335.664 271.600,336.296 271.600 C 336.586 271.600,336.800 271.105,336.800 270.433 C 336.800 269.792,336.935 269.207,337.100 269.133 C 337.265 269.060,337.749 268.315,338.175 267.477 C 338.602 266.640,339.367 265.505,339.875 264.957 C 340.384 264.408,340.800 263.651,340.800 263.275 C 340.800 262.899,341.221 262.138,341.735 261.584 C 342.249 261.030,342.782 260.128,342.919 259.580 C 343.057 259.032,343.491 258.217,343.885 257.769 C 344.594 256.960,345.175 255.976,347.115 252.293 C 347.668 251.245,348.535 249.940,349.041 249.393 C 349.547 248.847,349.877 248.400,349.773 248.400 C 349.669 248.400,349.951 247.680,350.400 246.800 C 350.849 245.920,351.393 245.200,351.608 245.200 C 351.824 245.200,352.000 244.913,352.000 244.562 C 352.000 244.211,352.397 243.365,352.883 242.683 C 353.369 242.001,354.060 240.893,354.420 240.221 C 354.779 239.550,355.577 238.055,356.193 236.900 C 356.809 235.745,357.468 234.800,357.657 234.800 C 357.846 234.800,358.000 234.530,358.000 234.200 C 358.000 233.870,358.135 233.598,358.300 233.596 C 358.465 233.594,358.955 232.784,359.390 231.796 C 359.824 230.808,360.299 230.000,360.446 230.000 C 360.593 230.000,360.818 229.581,360.947 229.069 C 361.076 228.557,361.611 227.673,362.138 227.105 C 362.664 226.537,363.202 225.647,363.332 225.128 C 363.462 224.609,363.936 223.790,364.385 223.309 C 364.833 222.827,365.200 222.261,365.200 222.049 C 365.200 221.474,366.555 219.205,366.900 219.203 C 367.065 219.201,367.200 218.973,367.200 218.695 C 367.200 218.417,367.830 217.254,368.600 216.110 C 369.370 214.967,370.000 213.917,370.000 213.778 C 370.000 213.638,370.990 211.907,372.200 209.930 C 373.410 207.953,374.400 206.232,374.400 206.106 C 374.400 205.979,374.805 205.319,375.300 204.638 C 375.795 203.957,376.539 202.733,376.953 201.919 C 377.367 201.104,378.035 200.084,378.437 199.653 C 378.839 199.221,379.280 198.421,379.417 197.874 C 379.555 197.327,380.012 196.509,380.433 196.056 C 380.855 195.604,381.200 195.046,381.200 194.817 C 381.200 194.588,381.535 194.400,381.945 194.400 C 382.513 194.400,382.646 194.175,382.507 193.448 C 382.339 192.566,384.118 189.200,384.753 189.200 C 384.889 189.200,385.028 188.721,385.062 188.137 C 385.095 187.553,385.410 186.914,385.762 186.718 C 386.113 186.521,386.400 186.099,386.400 185.780 C 386.400 185.461,386.574 185.200,386.787 185.200 C 387.001 185.200,387.072 184.932,386.946 184.603 C 386.817 184.268,386.987 183.903,387.333 183.770 C 387.672 183.640,387.852 183.279,387.732 182.967 C 387.612 182.655,387.722 182.400,387.975 182.400 C 388.228 182.400,388.399 182.175,388.354 181.900 C 388.310 181.625,388.409 181.040,388.574 180.600 C 388.740 180.160,389.060 179.305,389.286 178.700 C 389.512 178.095,389.855 177.600,390.049 177.600 C 390.242 177.600,390.401 177.195,390.402 176.700 C 390.404 176.205,390.674 175.284,391.002 174.654 C 391.331 174.024,391.600 173.253,391.600 172.942 C 391.600 172.630,391.850 172.279,392.156 172.162 C 392.462 172.044,392.626 171.621,392.521 171.219 C 392.275 170.280,393.065 169.790,393.818 170.415 C 394.161 170.700,394.400 170.731,394.400 170.492 C 394.400 170.268,394.130 169.982,393.800 169.855 C 393.110 169.591,392.976 168.000,393.643 168.000 C 393.914 168.000,393.991 167.619,393.842 167.025 C 393.707 166.488,393.778 165.937,393.999 165.801 C 394.219 165.664,394.400 165.108,394.400 164.564 C 394.400 164.020,394.656 163.477,394.970 163.356 C 395.375 163.201,395.475 162.741,395.317 161.769 C 395.142 160.686,395.230 160.400,395.738 160.400 C 396.237 160.400,396.327 160.135,396.141 159.206 C 395.970 158.348,396.073 157.947,396.507 157.780 C 396.997 157.592,397.030 157.333,396.680 156.406 C 396.145 154.990,396.930 153.678,397.853 154.444 C 398.182 154.717,398.400 154.738,398.400 154.498 C 398.400 154.278,398.130 153.874,397.800 153.600 C 396.665 152.658,397.310 150.050,398.560 150.529 C 399.005 150.700,399.200 150.549,399.200 150.030 C 399.200 149.621,398.919 149.178,398.574 149.046 C 398.144 148.880,397.988 148.400,398.074 147.503 C 398.236 145.824,399.297 145.754,399.649 147.400 C 399.847 148.326,399.916 148.095,399.953 146.389 C 399.991 144.612,399.838 144.039,399.173 143.469 C 398.246 142.676,398.395 140.579,399.437 139.756 C 400.278 139.093,400.266 120.094,399.425 119.444 C 398.368 118.627,398.215 116.185,399.163 115.237 C 399.768 114.632,399.989 113.929,399.960 112.700 C 399.928 111.333,399.866 111.196,399.642 112.000 C 399.211 113.549,398.200 113.269,398.200 111.600 C 398.200 110.582,398.370 110.212,398.822 110.243 C 399.276 110.274,399.402 109.996,399.287 109.215 C 399.171 108.421,398.907 108.151,398.265 108.172 C 397.204 108.206,396.794 106.531,397.772 106.155 C 398.137 106.015,398.387 105.471,398.368 104.857 C 398.351 104.276,398.246 104.025,398.135 104.300 C 397.841 105.029,396.928 104.911,396.618 104.104 C 396.443 103.647,396.641 103.173,397.192 102.726 L 398.032 102.046 397.116 101.563 C 395.887 100.915,395.590 100.381,395.860 99.303 C 396.003 98.735,395.906 98.400,395.598 98.400 C 395.274 98.400,395.173 97.962,395.299 97.104 C 395.430 96.212,395.289 95.650,394.845 95.304 C 394.257 94.844,394.265 94.750,394.942 94.225 C 395.350 93.909,395.589 93.414,395.473 93.125 C 395.316 92.732,395.255 92.726,395.232 93.100 C 395.214 93.375,394.942 93.600,394.627 93.600 C 394.002 93.600,393.409 92.232,393.777 91.638 C 393.902 91.435,393.801 91.200,393.552 91.117 C 393.303 91.034,393.064 90.614,393.021 90.183 C 392.937 89.330,392.548 88.187,391.978 87.117 C 391.779 86.742,391.500 85.718,391.360 84.842 C 391.220 83.966,390.874 83.160,390.591 83.052 C 390.307 82.943,389.946 82.263,389.787 81.540 C 389.628 80.818,389.361 79.950,389.193 79.613 C 389.026 79.276,388.612 78.370,388.274 77.600 C 387.936 76.830,387.338 75.480,386.946 74.600 C 386.553 73.720,386.272 72.859,386.320 72.688 C 386.369 72.516,386.046 71.987,385.604 71.512 C 385.162 71.038,384.800 70.413,384.800 70.125 C 384.800 69.836,384.654 69.600,384.475 69.600 C 384.296 69.600,383.902 68.970,383.600 68.200 C 383.298 67.430,382.916 66.800,382.752 66.800 C 382.588 66.800,382.331 66.395,382.181 65.900 C 382.030 65.405,381.478 64.427,380.954 63.727 C 380.429 63.026,380.000 62.171,380.000 61.827 C 380.000 61.482,379.816 61.200,379.591 61.200 C 379.367 61.200,378.963 60.705,378.694 60.100 C 378.426 59.495,378.068 58.820,377.900 58.600 C 377.732 58.380,376.695 57.052,375.597 55.649 C 374.499 54.246,373.600 52.949,373.600 52.767 C 373.600 52.585,373.195 52.010,372.700 51.488 C 368.418 46.978,367.584 45.618,368.422 44.512 C 368.875 43.913,368.875 43.877,368.419 44.281 C 367.560 45.044,362.800 41.571,362.800 40.181 C 362.800 39.932,362.345 39.521,361.789 39.268 C 360.512 38.686,360.154 37.783,360.855 36.918 C 361.231 36.455,361.245 36.340,360.900 36.547 C 360.582 36.738,360.400 36.611,360.400 36.200 C 360.400 35.844,360.252 35.644,360.071 35.756 C 359.702 35.984,358.163 34.366,358.307 33.900 C 358.358 33.735,358.175 33.645,357.900 33.700 C 357.625 33.755,357.436 33.602,357.480 33.359 C 357.527 33.101,357.172 32.993,356.624 33.097 C 355.212 33.367,353.491 32.082,353.713 30.922 C 353.929 29.790,353.383 29.350,352.584 30.013 C 351.675 30.768,349.855 29.431,350.157 28.230 C 350.322 27.570,350.089 27.064,349.295 26.362 C 348.486 25.648,348.386 25.614,348.904 26.232 C 350.292 27.888,348.543 28.111,346.807 26.500 C 346.154 25.895,344.888 24.954,343.994 24.409 C 342.885 23.734,342.386 23.160,342.428 22.609 C 342.530 21.251,342.425 21.118,341.771 21.771 C 341.058 22.485,340.400 22.594,340.400 22.000 C 340.400 21.780,340.186 21.600,339.925 21.600 C 338.991 21.600,336.793 19.799,336.897 19.118 C 336.999 18.445,336.664 18.324,335.710 18.690 C 335.441 18.793,334.541 18.456,333.710 17.940 C 330.946 16.222,329.806 15.580,329.100 15.342 C 328.715 15.213,328.400 14.948,328.400 14.753 C 328.400 14.559,328.130 14.400,327.800 14.400 C 327.470 14.400,327.200 14.136,327.200 13.813 C 327.200 13.473,326.963 13.316,326.639 13.440 C 326.141 13.632,323.414 12.647,321.505 11.586 C 321.123 11.374,320.558 11.200,320.248 11.200 C 319.939 11.200,319.578 10.919,319.446 10.575 C 319.314 10.231,319.045 10.049,318.849 10.170 C 318.285 10.518,316.000 9.578,316.000 8.998 C 316.000 8.684,315.701 8.553,315.252 8.671 C 314.690 8.818,314.433 8.586,314.220 7.739 C 313.978 6.771,313.883 6.708,313.556 7.293 C 313.161 7.999,311.052 7.907,310.220 7.147 C 310.011 6.956,309.516 6.800,309.120 6.800 C 308.724 6.800,308.400 6.631,308.400 6.425 C 308.400 6.218,307.905 6.083,307.300 6.125 C 306.401 6.186,306.205 6.038,306.230 5.316 C 306.269 4.179,305.318 3.798,304.994 4.820 C 304.701 5.741,304.273 5.811,303.634 5.041 C 303.375 4.729,302.806 4.578,302.344 4.699 C 301.390 4.948,300.651 4.062,301.231 3.362 C 301.497 3.042,301.382 2.836,300.861 2.700 C 300.340 2.564,300.121 2.704,300.153 3.151 C 300.184 3.577,299.821 3.844,299.100 3.927 C 298.320 4.016,298.000 3.873,298.000 3.435 C 298.000 2.923,297.831 2.894,297.012 3.267 C 295.756 3.840,294.500 3.044,295.244 2.147 C 295.602 1.715,295.528 1.600,294.892 1.600 C 294.448 1.600,293.982 1.870,293.855 2.200 C 293.729 2.530,293.281 2.800,292.862 2.800 C 291.950 2.800,291.026 1.806,291.389 1.218 C 291.795 0.561,290.956 0.730,290.383 1.420 C 289.732 2.205,287.400 2.047,287.400 1.218 C 287.400 0.898,287.850 0.511,288.400 0.358 C 289.235 0.126,289.141 0.073,287.826 0.040 C 286.748 0.013,285.976 0.259,285.378 0.821 C 284.417 1.724,282.515 1.565,282.125 0.549 C 281.864 -0.132,279.089 -0.187,278.042 0.466 C 277.473 0.822,276.622 0.822,274.471 0.466 C 270.852 -0.131,262.763 -0.134,259.159 0.462 C 257.046 0.811,256.251 0.811,255.902 0.462 C 255.217 -0.223,251.600 -0.143,251.600 0.557 C 251.600 1.566,249.503 1.767,248.744 0.831 C 248.234 0.200,247.653 0.013,246.336 0.054 C 245.381 0.084,245.005 0.187,245.500 0.282 M277.400 26.185 C 286.482 27.131,298.064 29.681,303.180 31.861 C 303.961 32.194,305.860 32.921,307.400 33.476 C 351.347 49.324,380.169 99.929,371.828 146.600 C 368.260 166.569,370.425 162.384,317.203 252.200 L 306.299 270.600 305.979 274.400 C 305.803 276.490,305.461 281.530,305.218 285.600 C 304.976 289.670,304.596 295.700,304.374 299.000 C 304.151 302.300,303.611 311.120,303.172 318.600 C 302.734 326.080,302.193 334.990,301.971 338.400 C 301.748 341.810,301.409 347.370,301.216 350.756 C 300.974 355.000,300.707 357.010,300.354 357.228 C 299.764 357.593,300.038 357.726,292.200 353.290 C 282.301 347.688,274.337 343.193,264.000 337.376 C 258.610 334.343,247.990 328.363,240.400 324.087 C 232.810 319.811,223.540 314.594,219.800 312.493 C 216.060 310.393,200.400 301.566,185.000 292.879 C 169.600 284.191,156.190 276.635,155.200 276.087 C 154.210 275.539,151.420 273.967,149.000 272.595 C 146.580 271.222,137.490 266.098,128.800 261.207 C 39.906 211.176,48.236 215.932,48.081 215.123 C 48.012 214.769,48.527 214.161,49.280 213.708 C 50.006 213.271,58.070 208.093,67.200 202.202 C 76.330 196.311,90.100 187.436,97.800 182.481 C 105.500 177.525,114.054 172.001,116.808 170.204 L 121.817 166.937 129.970 153.168 C 134.455 145.596,139.236 137.510,140.594 135.200 C 156.640 107.916,175.039 77.044,177.424 73.403 C 193.758 48.457,222.119 30.550,251.200 26.822 C 253.070 26.582,255.680 26.231,257.000 26.041 C 260.716 25.508,271.637 25.584,277.400 26.185 M182.000 28.200 C 181.483 28.750,181.227 29.194,181.430 29.187 C 181.772 29.176,183.421 27.200,183.088 27.200 C 183.006 27.200,182.517 27.650,182.000 28.200 M372.800 49.400 C 373.546 50.170,374.247 50.800,374.357 50.800 C 374.467 50.800,373.946 50.170,373.200 49.400 C 372.454 48.630,371.753 48.000,371.643 48.000 C 371.533 48.000,372.054 48.630,372.800 49.400 M146.886 300.441 C 169.940 313.424,166.527 311.503,182.200 320.314 C 196.672 328.449,196.105 327.883,193.427 331.520 C 173.768 358.225,131.763 350.846,122.163 319.000 C 119.528 310.260,121.524 294.725,125.903 289.887 C 126.733 288.969,124.701 287.947,146.886 300.441 " stroke="none" fill="#000000" fill-rule="evenodd"></path><path id="path1" d="M248.400 0.351 C 248.400 1.081,249.553 1.627,250.562 1.374 C 252.244 0.952,251.855 0.000,250.000 0.000 C 249.120 0.000,248.400 0.158,248.400 0.351 M255.890 0.450 C 256.213 0.773,256.996 0.787,258.670 0.501 L 261.000 0.103 258.220 0.051 C 256.161 0.013,255.557 0.117,255.890 0.450 M275.121 0.514 C 276.962 0.809,277.766 0.794,278.101 0.459 C 278.446 0.114,277.821 0.014,275.580 0.056 L 272.600 0.111 275.121 0.514 M282.092 0.475 C 282.353 1.260,284.342 1.746,285.013 1.189 C 286.027 0.348,285.662 0.000,283.767 0.000 C 282.529 0.000,281.985 0.154,282.092 0.475 M243.683 0.670 C 242.805 1.023,243.956 2.000,245.249 2.000 C 246.133 2.000,246.400 1.815,246.400 1.200 C 246.400 0.402,245.021 0.134,243.683 0.670 M287.400 0.800 C 286.984 1.473,287.588 2.000,288.775 2.000 C 289.908 2.000,291.020 1.153,290.530 0.663 C 290.116 0.249,287.674 0.356,287.400 0.800 M240.677 1.080 C 239.692 1.335,239.992 2.569,241.077 2.724 C 241.616 2.801,242.103 2.556,242.359 2.077 C 242.980 0.916,242.472 0.615,240.677 1.080 M291.409 1.185 C 291.029 1.800,291.928 2.800,292.862 2.800 C 293.544 2.800,294.331 1.798,293.949 1.415 C 293.492 0.959,291.652 0.792,291.409 1.185 M237.085 1.848 C 236.933 2.000,236.132 2.235,235.304 2.369 C 233.506 2.661,233.227 3.734,234.900 3.927 C 235.695 4.018,236.000 3.875,236.000 3.412 C 236.000 2.904,236.159 2.857,236.771 3.184 C 237.757 3.712,238.876 3.292,238.715 2.454 C 238.583 1.770,237.548 1.385,237.085 1.848 M295.267 2.119 C 294.500 3.044,295.728 3.852,297.012 3.267 C 297.831 2.894,298.000 2.923,298.000 3.435 C 298.000 3.873,298.320 4.016,299.100 3.927 C 300.705 3.742,300.503 2.672,298.800 2.342 C 298.030 2.192,297.027 1.952,296.572 1.807 C 296.062 1.645,295.561 1.765,295.267 2.119 M228.802 3.972 C 227.124 4.402,226.161 4.861,226.082 5.269 C 225.923 6.097,227.060 6.516,227.676 5.857 C 227.941 5.573,228.570 5.420,229.074 5.516 C 229.659 5.628,230.077 5.464,230.231 5.063 C 230.406 4.608,230.794 4.499,231.636 4.667 C 232.629 4.866,232.800 4.775,232.800 4.050 C 232.800 3.049,232.433 3.042,228.802 3.972 M301.050 3.519 C 300.692 4.099,301.476 4.871,302.283 4.734 C 302.720 4.661,303.388 4.858,303.769 5.174 C 304.423 5.717,305.166 5.312,305.194 4.397 C 305.211 3.830,301.362 3.014,301.050 3.519 M306.152 4.981 C 305.797 5.906,306.401 6.487,307.444 6.225 C 307.983 6.089,308.400 6.162,308.400 6.392 C 308.400 6.617,308.724 6.800,309.120 6.800 C 309.516 6.800,310.011 6.965,310.220 7.167 C 310.789 7.718,313.298 7.865,313.474 7.359 C 313.559 7.116,312.496 6.523,311.114 6.042 C 309.731 5.560,308.287 4.994,307.905 4.783 C 306.933 4.246,306.411 4.305,306.152 4.981 M221.600 6.351 C 218.797 7.343,217.810 8.270,219.100 8.700 C 219.375 8.792,219.600 8.689,219.600 8.471 C 219.600 8.253,219.958 8.168,220.395 8.283 C 220.877 8.409,221.279 8.260,221.415 7.905 C 221.559 7.530,221.993 7.386,222.620 7.506 C 223.187 7.614,223.600 7.505,223.600 7.247 C 223.600 7.001,224.050 6.800,224.600 6.800 C 225.333 6.800,225.600 6.587,225.600 6.000 C 225.600 5.008,225.323 5.033,221.600 6.351 M314.293 8.032 C 314.443 8.606,314.742 8.804,315.255 8.670 C 315.701 8.553,316.000 8.685,316.000 8.998 C 316.000 9.578,318.285 10.518,318.849 10.170 C 319.045 10.049,319.314 10.231,319.446 10.575 C 319.578 10.919,319.939 11.200,320.248 11.200 C 320.558 11.200,321.123 11.374,321.505 11.586 C 323.414 12.647,326.141 13.632,326.639 13.440 C 326.963 13.316,327.200 13.473,327.200 13.813 C 327.200 14.136,327.470 14.400,327.800 14.400 C 328.130 14.400,328.400 14.559,328.400 14.753 C 328.400 14.948,328.715 15.210,329.100 15.336 C 329.485 15.462,330.700 16.117,331.800 16.792 C 335.057 18.790,335.566 18.994,336.065 18.495 C 336.390 18.170,336.346 17.889,335.902 17.445 C 335.568 17.111,335.184 16.950,335.048 17.086 C 334.911 17.222,334.800 17.159,334.800 16.947 C 334.800 16.734,333.315 15.849,331.500 14.980 C 329.685 14.111,328.110 13.310,328.000 13.200 C 327.823 13.023,323.636 11.055,319.000 8.970 C 317.132 8.129,314.714 7.215,314.337 7.206 C 314.193 7.203,314.173 7.575,314.293 8.032 M216.000 8.373 C 215.670 8.552,214.095 9.297,212.500 10.027 C 210.905 10.757,209.600 11.481,209.600 11.634 C 209.600 12.117,210.977 12.468,211.126 12.023 C 211.203 11.790,211.612 11.600,212.033 11.600 C 212.455 11.600,212.800 11.426,212.800 11.213 C 212.800 10.999,213.027 10.912,213.304 11.018 C 213.581 11.125,214.519 10.849,215.388 10.406 C 216.258 9.963,217.201 9.600,217.485 9.600 C 217.768 9.600,218.000 9.240,218.000 8.800 C 218.000 7.962,217.107 7.771,216.000 8.373 M207.600 12.200 C 206.006 12.775,205.745 13.736,207.129 13.932 C 207.789 14.025,208.119 13.830,208.269 13.259 C 208.396 12.772,208.701 12.541,209.044 12.672 C 209.436 12.823,209.533 12.691,209.362 12.245 C 209.226 11.890,209.089 11.621,209.057 11.648 C 209.026 11.674,208.370 11.923,207.600 12.200 M203.674 14.086 C 203.407 14.353,201.806 15.298,200.115 16.186 C 196.934 17.857,196.042 18.800,197.642 18.800 C 198.565 18.800,201.192 17.248,201.197 16.700 C 201.199 16.535,201.579 16.400,202.043 16.400 C 202.653 16.400,202.817 16.222,202.638 15.756 C 202.436 15.230,202.583 15.159,203.434 15.373 C 204.554 15.654,205.600 15.064,205.600 14.151 C 205.600 13.470,204.333 13.427,203.674 14.086 M194.943 18.955 C 194.471 19.217,193.777 19.687,193.400 20.000 C 193.023 20.313,192.385 20.756,191.983 20.984 C 190.387 21.891,186.910 24.386,186.421 24.975 C 186.135 25.319,185.677 25.600,185.402 25.600 C 185.127 25.600,184.155 26.410,183.243 27.400 C 182.330 28.390,181.382 29.200,181.135 29.200 C 180.185 29.200,168.677 40.172,165.139 44.452 C 163.981 45.853,162.890 47.060,162.716 47.133 C 162.542 47.207,162.400 47.527,162.400 47.846 C 162.400 48.164,161.770 48.978,161.000 49.654 C 159.441 51.023,159.189 52.000,160.394 52.000 C 160.878 52.000,161.603 51.374,162.247 50.400 C 162.830 49.520,163.438 48.800,163.599 48.800 C 163.760 48.800,164.411 48.038,165.046 47.106 C 165.681 46.174,169.035 42.557,172.500 39.068 C 175.966 35.580,178.700 32.562,178.577 32.363 C 178.454 32.163,178.783 32.000,179.310 32.000 C 179.853 32.000,180.857 31.425,181.633 30.669 C 182.385 29.938,183.677 28.932,184.505 28.434 C 185.333 27.936,186.194 27.185,186.419 26.764 C 186.644 26.344,187.077 26.000,187.380 26.000 C 187.898 26.000,188.586 25.499,191.091 23.300 C 191.655 22.805,192.361 22.400,192.658 22.400 C 192.956 22.400,193.200 22.220,193.200 22.000 C 193.200 21.780,193.467 21.600,193.794 21.600 C 194.691 21.600,196.974 19.406,196.640 18.865 C 196.299 18.313,196.076 18.325,194.943 18.955 M336.954 18.976 C 336.696 19.648,338.022 20.986,339.400 21.443 C 339.840 21.589,340.304 21.870,340.432 22.067 C 340.686 22.462,342.000 22.091,342.000 21.625 C 342.000 21.383,339.633 19.739,337.697 18.636 C 337.405 18.469,337.094 18.612,336.954 18.976 M342.400 22.720 C 342.400 23.131,343.090 23.859,344.010 24.420 C 344.896 24.959,346.154 25.895,346.807 26.500 C 347.997 27.604,348.971 27.894,349.363 27.260 C 349.598 26.880,348.807 26.137,345.554 23.681 C 343.118 21.842,342.400 21.623,342.400 22.720 M257.000 26.041 C 255.680 26.231,253.070 26.582,251.200 26.822 C 222.119 30.550,193.758 48.457,177.424 73.403 C 175.039 77.044,156.640 107.916,140.594 135.200 C 139.236 137.510,134.455 145.596,129.970 153.168 L 121.817 166.937 116.808 170.204 C 114.054 172.001,105.500 177.525,97.800 182.481 C 90.100 187.436,76.330 196.311,67.200 202.202 C 58.070 208.093,50.006 213.271,49.280 213.708 C 48.527 214.161,48.012 214.769,48.081 215.123 C 48.236 215.932,39.906 211.176,128.800 261.207 C 137.490 266.098,146.580 271.222,149.000 272.595 C 151.420 273.967,154.210 275.539,155.200 276.087 C 156.190 276.635,169.600 284.191,185.000 292.879 C 200.400 301.566,216.060 310.393,219.800 312.493 C 223.540 314.594,232.810 319.811,240.400 324.087 C 247.990 328.363,258.610 334.343,264.000 337.376 C 274.337 343.193,282.301 347.688,292.200 353.290 C 300.038 357.726,299.764 357.593,300.354 357.228 C 300.707 357.010,300.974 355.000,301.216 350.756 C 301.409 347.370,301.748 341.810,301.971 338.400 C 302.193 334.990,302.734 326.080,303.172 318.600 C 303.611 311.120,304.151 302.300,304.374 299.000 C 304.596 295.700,304.976 289.670,305.218 285.600 C 305.461 281.530,305.803 276.490,305.979 274.400 L 306.299 270.600 317.203 252.200 C 370.425 162.384,368.260 166.569,371.828 146.600 C 380.169 99.929,351.347 49.324,307.400 33.476 C 305.860 32.921,303.961 32.194,303.180 31.861 C 292.786 27.432,268.569 24.380,257.000 26.041 M283.600 27.614 C 336.804 36.892,373.521 79.981,372.292 131.698 C 371.810 151.961,367.496 165.861,355.376 186.200 C 353.017 190.160,348.166 198.350,344.597 204.400 C 341.028 210.450,330.751 227.820,321.760 243.000 L 305.412 270.600 305.138 275.000 C 304.987 277.420,304.670 282.550,304.435 286.400 C 304.199 290.250,303.828 296.190,303.610 299.600 C 303.392 303.010,302.936 310.480,302.596 316.200 C 302.256 321.920,301.800 329.480,301.582 333.000 C 301.364 336.520,301.010 342.460,300.795 346.200 C 300.341 354.098,300.077 356.400,299.625 356.400 C 299.230 356.400,303.798 358.957,244.600 325.597 C 231.620 318.282,215.960 309.460,209.800 305.991 C 203.640 302.523,193.740 296.941,187.800 293.586 C 181.860 290.232,165.750 281.152,152.000 273.408 C 138.250 265.665,117.010 253.697,104.800 246.813 C 92.590 239.930,75.085 230.073,65.900 224.908 C 56.715 219.744,49.208 215.312,49.219 215.059 C 49.229 214.807,65.654 204.048,85.719 191.151 L 122.200 167.702 130.488 153.751 C 135.046 146.078,139.829 138.000,141.116 135.800 C 142.403 133.600,146.128 127.300,149.393 121.800 C 152.657 116.300,157.612 107.930,160.404 103.200 C 163.195 98.470,167.604 91.000,170.201 86.600 C 180.977 68.345,188.116 59.473,199.576 50.093 C 205.969 44.861,217.507 37.740,222.757 35.788 C 223.551 35.493,225.550 34.684,227.200 33.991 C 234.303 31.007,245.542 28.162,254.000 27.206 C 256.310 26.945,258.470 26.664,258.800 26.582 C 260.906 26.056,278.979 26.809,283.600 27.614 M350.267 27.867 C 349.726 28.407,350.027 29.199,351.021 29.850 C 352.560 30.859,353.274 29.956,352.005 28.605 C 351.018 27.554,350.710 27.424,350.267 27.867 M353.600 31.154 C 353.600 31.985,355.180 33.200,356.260 33.200 C 356.639 33.200,357.410 33.601,357.974 34.091 C 358.538 34.582,358.016 33.952,356.814 32.691 C 354.546 30.314,353.600 29.862,353.600 31.154 M360.487 37.451 C 360.427 38.177,360.724 38.621,361.600 39.120 C 362.257 39.494,362.796 40.000,362.797 40.245 C 362.801 40.821,366.605 44.385,367.283 44.447 C 367.567 44.473,367.929 44.476,368.086 44.452 C 368.243 44.429,368.268 44.679,368.142 45.008 C 367.800 45.898,368.729 47.215,372.700 51.472 C 373.195 52.002,373.600 52.585,373.600 52.767 C 373.600 52.949,374.499 54.246,375.597 55.649 C 376.695 57.052,377.732 58.380,377.900 58.600 C 378.068 58.820,378.426 59.495,378.694 60.100 C 378.963 60.705,379.367 61.200,379.591 61.200 C 379.816 61.200,380.000 61.482,380.000 61.827 C 380.000 62.171,380.429 63.026,380.954 63.727 C 381.478 64.427,382.030 65.405,382.181 65.900 C 382.331 66.395,382.588 66.800,382.752 66.800 C 382.916 66.800,383.298 67.430,383.600 68.200 C 383.902 68.970,384.296 69.600,384.475 69.600 C 384.654 69.600,384.800 69.836,384.800 70.125 C 384.800 70.413,385.162 71.038,385.604 71.512 C 386.046 71.987,386.369 72.516,386.320 72.688 C 386.272 72.859,386.553 73.720,386.946 74.600 C 387.338 75.480,387.936 76.830,388.274 77.600 C 388.612 78.370,389.026 79.276,389.193 79.613 C 389.361 79.950,389.628 80.818,389.787 81.540 C 389.946 82.263,390.307 82.943,390.591 83.052 C 390.874 83.160,391.220 83.966,391.360 84.842 C 391.500 85.718,391.779 86.742,391.978 87.117 C 392.548 88.187,392.937 89.330,393.021 90.183 C 393.064 90.614,393.303 91.034,393.552 91.117 C 393.801 91.200,393.902 91.435,393.777 91.638 C 393.422 92.212,393.993 93.600,394.584 93.600 C 395.570 93.600,395.555 92.473,394.535 89.731 C 393.976 88.229,393.367 86.375,393.181 85.611 C 392.996 84.847,392.593 84.037,392.287 83.811 C 391.980 83.585,391.805 83.177,391.897 82.904 C 391.989 82.631,391.645 81.496,391.132 80.382 C 388.778 75.268,383.472 64.824,382.402 63.200 C 381.750 62.210,381.051 61.033,380.850 60.584 C 380.648 60.135,380.195 59.527,379.842 59.235 C 379.489 58.942,379.200 58.542,379.200 58.347 C 379.200 57.734,376.007 53.322,372.900 49.643 C 372.185 48.796,371.600 47.960,371.600 47.785 C 371.600 47.098,362.558 37.565,361.185 36.804 C 360.711 36.541,360.550 36.690,360.487 37.451 M157.721 53.747 C 157.281 54.253,156.399 55.639,155.760 56.827 C 155.122 58.015,154.368 59.173,154.083 59.401 C 153.517 59.853,152.558 61.400,152.160 62.500 C 152.021 62.885,151.751 63.200,151.560 63.200 C 151.369 63.200,150.756 64.055,150.198 65.100 C 149.639 66.145,148.735 67.720,148.188 68.600 C 146.709 70.982,145.031 74.165,145.104 74.452 C 145.139 74.591,144.815 75.024,144.384 75.414 C 143.953 75.805,143.600 76.344,143.600 76.613 C 143.600 76.882,143.352 77.308,143.049 77.559 C 142.431 78.072,138.873 84.069,138.707 84.878 C 138.648 85.165,138.435 85.519,138.234 85.664 C 138.033 85.809,137.364 86.799,136.747 87.864 C 134.660 91.464,133.993 92.598,133.609 93.200 C 131.411 96.644,129.600 99.894,129.600 100.393 C 129.600 100.731,129.240 101.232,128.800 101.507 C 128.360 101.782,128.000 102.189,128.000 102.411 C 128.000 102.634,127.540 103.544,126.979 104.434 C 126.417 105.324,125.631 106.625,125.232 107.326 C 124.834 108.027,123.584 110.115,122.454 111.966 C 121.324 113.817,120.400 115.544,120.400 115.804 C 120.400 116.064,120.040 116.602,119.600 117.000 C 119.160 117.398,118.800 117.902,118.800 118.121 C 118.800 118.339,118.194 119.436,117.453 120.559 C 116.712 121.681,115.980 123.005,115.826 123.500 C 115.672 123.995,115.414 124.400,115.252 124.400 C 115.090 124.400,114.517 125.297,113.979 126.394 C 113.440 127.490,112.892 128.390,112.760 128.394 C 112.628 128.397,112.187 129.210,111.778 130.200 C 111.370 131.190,110.901 132.000,110.737 132.000 C 110.572 132.000,110.089 132.787,109.664 133.748 C 109.239 134.710,108.695 135.617,108.457 135.765 C 108.218 135.912,107.658 136.791,107.212 137.717 C 106.766 138.642,105.870 140.210,105.221 141.200 C 104.571 142.190,103.724 143.630,103.338 144.400 C 102.952 145.170,102.043 146.736,101.318 147.881 C 100.593 149.025,100.000 150.091,100.000 150.249 C 100.000 150.408,99.701 150.867,99.336 151.271 C 98.970 151.675,98.474 152.409,98.234 152.903 C 97.994 153.396,96.991 154.207,96.006 154.704 C 93.321 156.058,92.440 157.032,93.573 157.391 C 94.468 157.675,96.307 156.767,96.920 155.737 C 97.096 155.442,97.494 155.200,97.804 155.200 C 98.572 155.200,100.292 153.285,100.590 152.099 C 100.723 151.567,101.192 150.746,101.632 150.274 C 102.071 149.802,102.543 148.968,102.681 148.420 C 102.818 147.872,103.339 146.983,103.838 146.445 C 104.338 145.907,105.073 144.829,105.473 144.051 C 105.873 143.272,106.611 142.008,107.114 141.241 C 107.616 140.475,107.937 139.612,107.826 139.324 C 107.716 139.036,107.868 138.800,108.165 138.800 C 108.462 138.800,109.211 137.799,109.830 136.576 C 110.449 135.352,111.101 134.261,111.278 134.152 C 111.455 134.042,111.600 133.595,111.600 133.157 C 111.600 132.720,112.018 131.965,112.530 131.481 C 113.041 130.996,113.583 130.330,113.734 130.000 C 113.885 129.670,114.362 128.860,114.793 128.200 C 116.262 125.953,117.166 124.100,116.916 123.850 C 116.779 123.712,116.862 123.600,117.101 123.600 C 117.603 123.600,119.392 120.858,119.088 120.554 C 118.976 120.442,119.319 119.881,119.852 119.306 C 120.384 118.732,120.924 117.843,121.053 117.331 C 121.182 116.819,121.447 116.400,121.643 116.400 C 121.840 116.400,122.000 116.130,122.000 115.800 C 122.000 115.470,122.159 115.200,122.353 115.200 C 122.548 115.200,122.821 114.885,122.960 114.500 C 123.213 113.800,123.412 113.451,125.100 110.747 C 125.595 109.954,126.000 109.111,126.000 108.873 C 126.000 108.636,126.450 107.956,127.000 107.362 C 127.550 106.769,128.000 106.020,128.000 105.699 C 128.000 105.378,128.450 104.581,129.000 103.927 C 129.550 103.273,130.000 102.492,130.000 102.190 C 130.000 101.888,130.423 101.185,130.940 100.627 C 131.457 100.069,132.385 98.665,133.003 97.507 C 133.621 96.348,134.450 94.794,134.845 94.052 C 135.239 93.311,135.820 92.411,136.134 92.052 C 136.448 91.694,136.839 90.964,137.002 90.431 C 137.165 89.898,137.643 89.091,138.064 88.639 C 138.486 88.186,138.938 87.391,139.068 86.872 C 139.198 86.353,139.704 85.497,140.192 84.971 C 140.680 84.444,141.532 83.155,142.085 82.107 C 144.152 78.184,144.609 77.394,144.957 77.141 C 145.154 76.999,145.211 76.484,145.083 75.997 C 144.916 75.357,145.052 75.059,145.576 74.922 C 145.975 74.818,146.548 74.253,146.850 73.666 C 147.152 73.080,147.507 72.510,147.640 72.400 C 147.773 72.290,148.216 71.480,148.624 70.600 C 149.032 69.720,149.627 68.802,149.946 68.560 C 150.290 68.298,150.433 67.771,150.300 67.260 C 150.133 66.622,150.256 66.400,150.774 66.400 C 151.179 66.400,151.795 65.771,152.237 64.906 C 152.657 64.084,153.225 63.172,153.500 62.878 C 153.775 62.583,154.000 62.176,154.000 61.971 C 154.000 61.767,154.360 61.240,154.800 60.800 C 155.240 60.360,155.600 59.730,155.600 59.400 C 155.600 59.070,155.768 58.800,155.973 58.800 C 156.178 58.800,156.460 58.443,156.598 58.006 C 156.737 57.569,157.379 56.683,158.025 56.036 C 159.161 54.900,159.560 53.469,158.860 53.037 C 158.673 52.922,158.161 53.241,157.721 53.747 M394.562 94.461 C 394.406 94.714,394.550 95.121,394.884 95.364 C 395.291 95.662,395.427 96.232,395.299 97.104 C 395.173 97.962,395.274 98.400,395.598 98.400 C 395.916 98.400,396.001 98.740,395.843 99.371 C 395.604 100.323,396.398 101.600,397.229 101.600 C 397.729 101.600,397.704 99.312,397.200 99.000 C 396.980 98.864,396.800 98.401,396.800 97.970 C 396.800 95.517,395.332 93.215,394.562 94.461 M396.842 102.949 C 396.298 103.605,396.668 104.800,397.416 104.800 C 398.025 104.800,398.574 103.405,398.202 102.804 C 397.859 102.247,397.382 102.298,396.842 102.949 M397.345 106.600 C 397.023 107.438,397.461 108.400,398.164 108.400 C 398.966 108.400,399.303 107.754,398.999 106.796 C 398.702 105.860,397.675 105.739,397.345 106.600 M398.169 110.538 C 397.785 111.538,398.160 113.000,398.800 113.000 C 399.216 113.000,399.400 112.581,399.400 111.633 C 399.400 110.215,398.574 109.480,398.169 110.538 M398.761 115.726 C 398.274 116.795,398.767 119.256,399.518 119.506 C 399.859 119.620,400.000 118.953,400.000 117.233 C 400.000 114.703,399.503 114.098,398.761 115.726 M399.071 139.900 C 398.444 140.965,398.411 142.754,399.008 143.351 C 399.952 144.294,400.000 144.219,400.000 141.800 C 400.000 139.856,399.590 139.018,399.071 139.900 M398.169 146.538 C 397.765 147.590,398.173 148.987,398.926 149.130 C 399.540 149.247,399.633 149.037,399.526 147.765 C 399.396 146.213,398.577 145.473,398.169 146.538 M397.349 151.462 C 397.075 152.551,397.607 153.879,398.244 153.700 C 398.440 153.645,398.616 153.465,398.635 153.300 C 398.654 153.135,398.808 152.685,398.977 152.300 C 399.147 151.915,399.182 151.330,399.055 151.000 C 398.683 150.029,397.637 150.312,397.349 151.462 M396.790 154.612 C 396.374 155.113,396.349 155.528,396.680 156.406 C 397.030 157.333,396.997 157.592,396.507 157.780 C 396.073 157.947,395.970 158.348,396.141 159.206 C 396.327 160.135,396.237 160.400,395.738 160.400 C 395.230 160.400,395.142 160.686,395.317 161.769 C 395.475 162.741,395.375 163.201,394.970 163.356 C 394.656 163.477,394.400 164.020,394.400 164.564 C 394.400 165.108,394.219 165.664,393.999 165.801 C 393.778 165.937,393.707 166.488,393.842 167.025 C 393.991 167.619,393.914 168.000,393.643 168.000 C 393.066 168.000,393.067 169.471,393.645 169.828 C 394.214 170.179,394.860 169.207,394.648 168.319 C 394.558 167.945,394.660 167.580,394.874 167.509 C 395.257 167.381,396.286 163.852,396.685 161.296 C 396.797 160.579,397.049 159.894,397.244 159.773 C 397.440 159.652,397.600 159.171,397.600 158.705 C 397.600 158.238,397.817 157.257,398.082 156.524 C 398.696 154.826,397.761 153.442,396.790 154.612 M89.469 158.965 C 87.966 159.974,86.649 160.800,86.541 160.800 C 86.433 160.800,85.592 161.313,84.672 161.941 C 83.752 162.568,82.800 163.153,82.555 163.241 C 82.310 163.328,81.590 163.804,80.955 164.299 C 79.225 165.645,76.807 167.200,76.444 167.200 C 76.268 167.200,75.798 167.560,75.400 168.000 C 75.002 168.440,74.448 168.800,74.169 168.800 C 73.890 168.800,73.127 169.250,72.473 169.800 C 71.819 170.350,71.181 170.800,71.055 170.800 C 70.928 170.800,69.784 171.498,68.513 172.352 C 63.003 176.050,55.351 181.010,54.786 181.250 C 54.448 181.393,53.931 181.801,53.637 182.155 C 53.343 182.510,52.884 182.800,52.617 182.800 C 52.351 182.800,51.105 183.520,49.849 184.400 C 48.592 185.280,47.420 186.000,47.244 186.000 C 47.068 186.000,46.598 186.360,46.200 186.800 C 45.802 187.240,45.317 187.600,45.122 187.600 C 44.927 187.600,44.280 187.936,43.684 188.346 C 43.088 188.756,41.565 189.756,40.300 190.567 C 38.043 192.015,37.316 193.207,38.700 193.192 C 39.621 193.182,43.171 190.942,43.460 190.189 C 43.584 189.865,44.016 189.600,44.419 189.600 C 44.823 189.600,45.257 189.431,45.385 189.225 C 45.512 189.018,46.622 188.253,47.852 187.525 C 49.081 186.796,50.492 185.930,50.989 185.600 C 51.485 185.270,52.726 184.488,53.746 183.862 C 54.766 183.236,55.600 182.581,55.600 182.405 C 55.600 182.230,56.050 181.974,56.600 181.836 C 57.150 181.698,57.600 181.408,57.600 181.192 C 57.600 180.977,57.797 180.800,58.039 180.800 C 58.680 180.800,63.155 177.973,64.452 176.748 C 65.065 176.169,66.024 175.580,66.583 175.440 C 67.142 175.300,67.600 175.008,67.600 174.792 C 67.600 174.577,67.833 174.400,68.119 174.400 C 68.404 174.400,68.989 174.129,69.419 173.798 C 69.848 173.466,71.325 172.480,72.700 171.606 C 74.075 170.732,75.200 169.834,75.200 169.609 C 75.200 169.384,75.549 169.200,75.976 169.200 C 76.403 169.200,76.857 169.031,76.985 168.825 C 77.112 168.618,78.219 167.853,79.443 167.125 C 84.187 164.301,86.531 162.791,87.001 162.257 C 87.221 162.005,88.223 161.372,89.226 160.849 C 91.972 159.418,92.478 158.954,92.332 157.997 C 92.208 157.180,92.042 157.236,89.469 158.965 M392.552 170.581 C 392.429 170.900,392.434 171.331,392.562 171.539 C 392.690 171.746,392.526 172.019,392.198 172.146 C 391.869 172.272,391.600 172.630,391.600 172.942 C 391.600 173.253,391.331 174.024,391.002 174.654 C 390.674 175.284,390.404 176.205,390.402 176.700 C 390.401 177.195,390.242 177.600,390.049 177.600 C 389.855 177.600,389.512 178.095,389.286 178.700 C 389.060 179.305,388.740 180.160,388.574 180.600 C 388.409 181.040,388.310 181.625,388.354 181.900 C 388.399 182.175,388.228 182.400,387.975 182.400 C 387.722 182.400,387.612 182.655,387.732 182.967 C 387.852 183.279,387.672 183.640,387.333 183.770 C 386.987 183.903,386.817 184.268,386.946 184.603 C 387.072 184.932,387.001 185.200,386.787 185.200 C 386.574 185.200,386.400 185.461,386.400 185.780 C 386.400 186.099,386.113 186.521,385.762 186.718 C 385.410 186.914,385.095 187.553,385.062 188.137 C 385.028 188.721,384.889 189.200,384.753 189.200 C 384.118 189.200,382.339 192.566,382.507 193.448 C 382.646 194.175,382.513 194.400,381.945 194.400 C 381.535 194.400,381.200 194.588,381.200 194.817 C 381.200 195.046,380.855 195.604,380.433 196.056 C 380.012 196.509,379.555 197.327,379.417 197.874 C 379.280 198.421,378.839 199.221,378.437 199.653 C 378.035 200.084,377.367 201.104,376.953 201.919 C 376.539 202.733,375.795 203.957,375.300 204.638 C 374.805 205.319,374.400 205.979,374.400 206.106 C 374.400 206.232,373.410 207.953,372.200 209.930 C 370.990 211.907,370.000 213.638,370.000 213.778 C 370.000 213.917,369.370 214.967,368.600 216.110 C 367.830 217.254,367.200 218.417,367.200 218.695 C 367.200 218.973,367.065 219.201,366.900 219.203 C 366.555 219.205,365.200 221.474,365.200 222.049 C 365.200 222.261,364.833 222.827,364.385 223.309 C 363.936 223.790,363.462 224.609,363.332 225.128 C 363.202 225.647,362.664 226.537,362.138 227.105 C 361.611 227.673,361.076 228.557,360.947 229.069 C 360.818 229.581,360.593 230.000,360.446 230.000 C 360.299 230.000,359.824 230.808,359.390 231.796 C 358.955 232.784,358.465 233.594,358.300 233.596 C 358.135 233.598,358.000 233.870,358.000 234.200 C 358.000 234.530,357.846 234.800,357.657 234.800 C 357.468 234.800,356.809 235.745,356.193 236.900 C 355.577 238.055,354.779 239.550,354.420 240.221 C 354.060 240.893,353.369 242.001,352.883 242.683 C 352.397 243.365,352.000 244.211,352.000 244.562 C 352.000 244.913,351.824 245.200,351.608 245.200 C 351.393 245.200,350.849 245.920,350.400 246.800 C 349.951 247.680,349.669 248.400,349.773 248.400 C 349.877 248.400,349.547 248.847,349.041 249.393 C 348.535 249.940,347.668 251.245,347.115 252.293 C 345.175 255.976,344.594 256.960,343.885 257.769 C 343.491 258.217,343.057 259.032,342.919 259.580 C 342.782 260.128,342.249 261.030,341.735 261.584 C 341.221 262.138,340.800 262.899,340.800 263.275 C 340.800 263.651,340.384 264.408,339.875 264.957 C 339.367 265.505,338.602 266.640,338.175 267.477 C 337.749 268.315,337.265 269.060,337.100 269.133 C 336.935 269.207,336.800 269.792,336.800 270.433 C 336.800 271.105,336.586 271.600,336.296 271.600 C 335.664 271.600,335.226 272.277,332.152 278.000 C 331.738 278.770,331.289 279.490,331.152 279.600 C 329.428 280.995,327.773 285.965,328.818 286.611 C 329.461 287.008,330.400 286.014,330.400 284.935 C 330.400 284.403,330.787 283.210,331.259 282.284 C 331.732 281.358,332.103 280.510,332.083 280.400 C 332.064 280.290,332.362 279.840,332.746 279.400 C 333.629 278.387,336.107 274.208,336.839 272.500 C 337.145 271.785,337.514 271.200,337.660 271.200 C 337.908 271.200,338.792 269.798,340.748 266.300 C 341.209 265.475,341.468 264.800,341.323 264.800 C 341.179 264.800,341.435 264.395,341.892 263.900 C 342.782 262.937,343.957 261.067,345.096 258.800 C 345.483 258.030,346.019 257.220,346.287 257.000 C 346.555 256.780,347.047 255.937,347.381 255.127 C 347.715 254.317,348.170 253.542,348.393 253.405 C 348.615 253.267,349.233 252.203,349.765 251.040 C 350.297 249.877,350.972 248.672,351.266 248.363 C 351.560 248.053,352.118 247.170,352.507 246.400 C 352.896 245.630,353.742 244.190,354.387 243.200 C 355.032 242.210,355.868 240.770,356.246 240.000 C 356.623 239.230,357.229 238.240,357.592 237.800 C 357.955 237.360,358.595 236.190,359.015 235.200 C 359.434 234.210,360.001 233.259,360.275 233.088 C 360.549 232.916,361.139 232.016,361.586 231.088 C 362.033 230.159,362.928 228.590,363.575 227.600 C 364.781 225.753,365.082 225.245,367.009 221.800 C 367.625 220.700,368.391 219.492,368.712 219.116 C 369.033 218.740,369.727 217.570,370.255 216.516 C 370.783 215.462,371.836 213.610,372.595 212.400 C 373.354 211.190,374.104 209.930,374.263 209.600 C 374.422 209.270,375.147 208.064,375.876 206.919 C 376.604 205.775,377.200 204.706,377.200 204.545 C 377.200 204.384,377.527 203.880,377.926 203.426 C 378.325 202.972,378.995 201.790,379.415 200.800 C 379.834 199.810,380.384 198.869,380.636 198.709 C 380.889 198.550,381.331 197.830,381.620 197.109 C 381.908 196.389,382.625 195.080,383.213 194.200 C 383.801 193.320,384.618 191.886,385.028 191.013 C 385.438 190.141,386.111 189.089,386.524 188.676 C 386.942 188.258,387.188 187.596,387.079 187.182 C 386.972 186.773,387.003 186.385,387.147 186.319 C 387.921 185.967,393.200 174.101,393.200 172.712 C 393.200 172.408,393.404 171.956,393.653 171.707 C 394.165 171.195,393.848 170.000,393.200 170.000 C 392.966 170.000,392.675 170.261,392.552 170.581 M33.277 195.118 C 31.669 196.153,28.249 198.362,25.677 200.027 C 23.105 201.693,20.133 203.583,19.073 204.227 C 18.013 204.872,16.347 205.985,15.370 206.700 C 14.392 207.415,13.424 208.000,13.216 208.000 C 13.009 208.000,12.696 208.229,12.520 208.508 C 12.344 208.788,11.750 209.241,11.200 209.515 C 10.650 209.789,9.390 210.547,8.400 211.200 C 7.410 211.853,6.330 212.514,6.000 212.669 C 5.235 213.028,1.619 215.515,0.700 216.315 C -0.895 217.702,-0.237 219.708,2.241 221.017 C 7.500 223.793,8.371 224.278,8.930 224.742 C 9.254 225.011,10.428 225.719,11.539 226.316 C 16.878 229.182,20.020 230.935,22.400 232.377 C 25.338 234.156,29.850 236.459,30.247 236.382 C 30.392 236.355,30.655 236.566,30.832 236.852 C 31.009 237.139,32.380 238.048,33.877 238.873 C 38.650 241.501,41.295 242.988,41.957 243.415 C 42.310 243.644,43.680 244.410,45.000 245.118 C 46.320 245.827,47.670 246.581,48.000 246.795 C 52.384 249.640,57.619 252.141,58.126 251.634 C 58.759 251.001,58.338 250.690,52.811 247.697 C 51.828 247.164,50.524 246.373,49.915 245.940 C 49.306 245.506,48.446 245.124,48.004 245.090 C 47.562 245.057,47.200 244.915,47.200 244.775 C 47.200 244.382,42.291 241.550,41.500 241.486 C 41.115 241.455,40.800 241.305,40.800 241.153 C 40.800 240.742,37.358 238.800,36.629 238.800 C 36.283 238.800,36.000 238.665,36.000 238.500 C 35.999 238.076,32.214 236.000,31.441 236.000 C 31.088 236.000,30.800 235.820,30.800 235.600 C 30.800 235.380,30.530 235.200,30.200 235.200 C 29.870 235.200,29.600 235.042,29.600 234.849 C 29.600 234.656,28.565 233.981,27.300 233.349 C 26.035 232.717,24.940 232.065,24.867 231.900 C 24.793 231.735,24.559 231.600,24.345 231.600 C 24.132 231.600,23.295 231.150,22.486 230.600 C 21.677 230.050,20.696 229.600,20.307 229.600 C 19.918 229.600,19.600 229.420,19.600 229.200 C 19.600 228.980,19.330 228.800,19.000 228.800 C 18.670 228.800,18.399 228.665,18.399 228.500 C 18.398 228.335,17.363 227.661,16.099 227.002 C 14.834 226.343,13.063 225.319,12.161 224.725 C 11.260 224.132,10.045 223.526,9.461 223.380 C 8.878 223.233,8.400 222.953,8.400 222.757 C 8.400 222.560,8.145 222.400,7.833 222.400 C 7.522 222.400,7.207 222.265,7.133 222.100 C 6.885 221.541,4.401 220.352,3.999 220.601 C 3.780 220.736,3.600 220.667,3.600 220.446 C 3.600 220.226,3.060 219.726,2.400 219.336 C 0.861 218.428,1.397 216.400,3.176 216.400 C 3.378 216.400,3.781 216.169,4.071 215.886 C 4.362 215.604,5.500 214.855,6.600 214.221 C 7.700 213.587,8.970 212.693,9.421 212.234 C 9.873 211.776,10.503 211.345,10.821 211.278 C 11.140 211.211,11.585 210.941,11.811 210.678 C 12.037 210.415,13.027 209.766,14.011 209.235 C 16.850 207.704,22.000 204.323,22.000 203.990 C 22.000 203.823,22.450 203.574,23.000 203.436 C 23.550 203.298,24.000 203.008,24.000 202.792 C 24.000 202.577,24.225 202.400,24.500 202.399 C 24.951 202.398,31.117 198.609,31.600 198.036 C 31.710 197.905,32.295 197.544,32.900 197.232 C 33.505 196.920,34.000 196.515,34.000 196.332 C 34.000 196.150,34.231 196.000,34.513 196.000 C 35.370 196.000,37.151 194.339,36.926 193.751 C 36.630 192.981,36.548 193.012,33.277 195.118 M58.406 251.793 C 58.046 252.227,58.307 252.538,59.676 253.311 C 60.624 253.846,62.030 254.669,62.800 255.139 C 63.570 255.609,65.010 256.405,66.000 256.908 C 66.990 257.411,68.329 258.177,68.975 258.611 C 70.130 259.387,72.420 260.631,77.053 263.000 C 78.344 263.660,79.462 264.342,79.538 264.515 C 79.614 264.688,81.111 265.588,82.865 266.515 C 88.242 269.357,89.363 269.981,90.400 270.713 C 90.950 271.101,92.300 271.855,93.400 272.388 C 94.500 272.922,95.670 273.573,96.000 273.834 C 96.330 274.096,97.561 274.808,98.736 275.416 C 101.491 276.842,101.519 276.973,99.784 280.378 C 98.978 281.959,98.422 283.355,98.548 283.481 C 98.673 283.607,98.422 284.208,97.988 284.817 C 97.555 285.425,97.200 286.271,97.200 286.695 C 97.200 287.119,97.077 287.590,96.926 287.741 C 96.589 288.077,95.614 290.827,95.606 291.463 C 95.599 291.970,97.076 291.724,97.425 291.160 C 97.541 290.971,97.452 290.471,97.226 290.048 C 96.913 289.463,96.956 289.226,97.407 289.053 C 97.733 288.927,98.000 288.459,98.000 288.013 C 98.000 287.566,98.180 287.200,98.400 287.200 C 98.620 287.200,98.800 286.851,98.800 286.424 C 98.800 285.997,98.987 285.531,99.216 285.390 C 99.445 285.248,99.530 284.809,99.404 284.414 C 99.261 283.963,99.420 283.601,99.830 283.444 C 100.189 283.306,100.385 282.937,100.264 282.622 C 100.144 282.309,100.196 281.995,100.380 281.926 C 100.864 281.744,103.200 277.668,103.200 277.005 C 103.200 276.328,97.331 272.400,96.319 272.400 C 95.923 272.400,95.600 272.263,95.600 272.095 C 95.600 271.766,95.145 271.486,92.384 270.112 C 91.403 269.624,89.790 268.679,88.800 268.014 C 87.810 267.348,86.685 266.803,86.300 266.802 C 85.915 266.801,85.600 266.620,85.600 266.400 C 85.600 266.180,85.330 266.000,85.000 266.000 C 84.670 266.000,84.399 265.865,84.399 265.700 C 84.398 265.535,83.363 264.861,82.099 264.202 C 80.834 263.543,79.063 262.519,78.161 261.925 C 77.260 261.332,76.045 260.726,75.461 260.580 C 74.878 260.433,74.400 260.153,74.400 259.957 C 74.400 259.760,74.130 259.600,73.800 259.600 C 73.470 259.600,73.200 259.441,73.200 259.247 C 73.200 259.052,72.885 258.786,72.500 258.655 C 72.115 258.523,70.720 257.787,69.400 257.018 C 68.080 256.249,66.190 255.211,65.200 254.710 C 64.210 254.210,63.340 253.665,63.267 253.500 C 63.193 253.335,62.951 253.200,62.728 253.200 C 62.506 253.200,61.846 252.869,61.262 252.465 C 59.676 251.367,58.909 251.187,58.406 251.793 M125.903 289.887 C 121.524 294.725,119.528 310.260,122.163 319.000 C 131.763 350.846,173.768 358.225,193.427 331.520 C 196.105 327.883,196.672 328.449,182.200 320.314 C 166.527 311.503,169.940 313.424,146.886 300.441 C 124.701 287.947,126.733 288.969,125.903 289.887 M146.108 300.873 C 156.718 306.853,171.876 315.392,179.792 319.849 C 195.918 328.929,194.912 328.112,193.142 330.686 C 171.966 361.485,121.846 346.108,121.807 308.800 C 121.799 301.485,124.741 290.000,126.623 290.000 C 126.729 290.000,135.497 294.893,146.108 300.873 M328.221 291.966 C 327.584 292.997,327.521 297.037,328.135 297.546 C 329.161 298.398,329.600 297.699,329.600 295.209 C 329.600 292.116,329.000 290.705,328.221 291.966 M95.476 292.657 C 95.104 293.029,95.123 294.402,95.500 294.394 C 96.516 294.373,96.991 293.620,96.376 293.005 C 96.033 292.662,95.628 292.505,95.476 292.657 M94.647 295.423 C 94.099 296.850,94.361 297.935,95.200 297.716 C 96.136 297.471,96.289 295.937,95.447 295.239 C 95.018 294.883,94.838 294.925,94.647 295.423 M94.100 299.188 C 93.400 300.309,93.450 302.400,94.176 302.400 C 94.493 302.400,94.829 302.265,94.921 302.100 C 95.902 300.351,95.115 297.560,94.100 299.188 M327.702 303.300 C 326.875 304.346,326.708 308.035,327.451 308.856 C 328.449 309.959,328.787 309.165,328.794 305.700 C 328.800 302.884,328.519 302.268,327.702 303.300 M326.641 315.272 C 326.001 318.413,326.039 319.960,326.778 320.870 L 327.533 321.800 327.788 320.788 C 328.197 319.162,327.860 314.683,327.315 314.503 C 327.048 314.415,326.744 314.761,326.641 315.272 M93.600 316.376 C 93.600 318.143,94.192 318.779,95.044 317.927 C 95.862 317.109,95.350 314.800,94.350 314.800 C 93.744 314.800,93.600 315.102,93.600 316.376 M94.559 321.027 C 94.692 321.782,94.910 323.030,95.044 323.800 C 95.188 324.629,95.519 325.200,95.856 325.200 C 96.763 325.200,97.018 323.949,96.229 323.372 C 95.712 322.994,95.628 322.678,95.911 322.173 C 96.449 321.211,96.074 320.113,95.122 319.864 C 94.402 319.675,94.344 319.796,94.559 321.027 M326.721 325.918 C 325.412 326.174,325.198 331.277,326.486 331.522 C 327.347 331.687,327.690 330.446,327.524 327.771 C 327.423 326.153,327.274 325.810,326.721 325.918 M95.600 326.749 C 95.600 327.191,95.780 327.664,96.000 327.800 C 96.220 327.936,96.400 328.451,96.400 328.944 C 96.400 329.437,96.584 330.024,96.809 330.249 C 97.035 330.475,97.288 331.017,97.372 331.455 C 97.939 334.400,104.715 346.400,105.811 346.400 C 106.628 346.400,106.551 344.958,105.700 344.323 C 105.315 344.035,104.945 343.530,104.878 343.200 C 104.811 342.870,104.496 342.400,104.178 342.156 C 103.860 341.912,103.600 341.507,103.600 341.256 C 103.600 341.005,103.420 340.800,103.200 340.800 C 102.980 340.800,102.800 340.423,102.800 339.962 C 102.800 339.501,102.464 338.646,102.052 338.062 C 101.641 337.478,101.179 336.595,101.026 336.100 C 100.872 335.605,100.494 335.200,100.186 335.200 C 99.877 335.200,99.717 334.961,99.829 334.669 C 99.941 334.377,99.815 333.612,99.550 332.969 C 98.971 331.568,99.013 331.693,98.612 330.200 C 98.435 329.540,98.095 328.754,97.858 328.454 C 97.620 328.154,97.420 327.524,97.413 327.054 C 97.404 326.478,97.107 326.158,96.500 326.072 C 95.823 325.976,95.600 326.143,95.600 326.749 M325.666 337.640 C 324.292 339.847,324.852 344.357,326.382 343.411 C 326.833 343.133,326.886 339.180,326.460 337.691 L 326.200 336.782 325.666 337.640 M217.680 341.680 C 217.416 341.944,217.200 342.394,217.200 342.680 C 217.200 342.966,217.016 343.200,216.791 343.200 C 216.567 343.200,216.164 343.695,215.896 344.300 C 215.628 344.905,215.182 345.638,214.905 345.929 C 214.309 346.552,214.246 347.458,214.775 347.785 C 215.109 347.991,217.072 345.708,218.230 343.764 C 218.634 343.086,218.743 343.082,220.030 343.693 C 220.784 344.050,221.551 344.344,221.736 344.345 C 221.921 344.346,222.281 344.612,222.536 344.937 C 222.791 345.262,223.990 346.018,225.200 346.616 C 226.410 347.215,227.695 347.851,228.056 348.029 C 228.555 348.274,228.670 348.190,228.536 347.676 C 228.317 346.842,224.142 344.000,223.134 344.000 C 222.731 344.000,222.400 343.820,222.400 343.600 C 222.400 343.380,222.130 343.200,221.800 343.200 C 221.470 343.200,221.200 343.020,221.200 342.800 C 221.200 342.580,221.007 342.400,220.771 342.400 C 220.536 342.400,220.073 342.130,219.743 341.800 C 219.018 341.075,218.325 341.035,217.680 341.680 M106.400 347.546 C 106.400 349.464,118.703 361.457,119.675 360.485 C 120.335 359.825,119.732 358.780,118.399 358.277 C 117.740 358.028,117.200 357.689,117.200 357.523 C 117.200 357.358,115.419 355.440,113.243 353.262 C 111.066 351.084,108.975 348.829,108.597 348.251 C 107.955 347.271,106.400 346.772,106.400 347.546 M229.400 348.000 C 229.001 348.645,229.520 349.144,231.929 350.433 C 233.178 351.101,235.370 352.340,236.800 353.187 C 241.450 355.940,244.108 357.201,245.164 357.154 C 245.842 357.123,245.958 357.044,245.500 356.924 C 245.115 356.824,244.800 356.485,244.800 356.171 C 244.800 355.857,244.607 355.600,244.372 355.600 C 244.137 355.600,243.161 355.061,242.203 354.402 C 241.246 353.743,240.053 353.142,239.552 353.066 C 239.052 352.989,238.573 352.718,238.488 352.463 C 238.403 352.209,238.176 352.000,237.984 352.000 C 237.793 352.000,236.987 351.560,236.194 351.022 C 235.401 350.484,234.493 350.143,234.176 350.264 C 233.859 350.386,233.600 350.294,233.600 350.060 C 233.600 349.166,229.824 347.315,229.400 348.000 M211.666 349.851 C 210.229 352.069,211.207 352.683,213.026 350.706 C 214.629 348.963,214.745 348.398,213.500 348.405 C 212.909 348.408,212.279 348.905,211.666 349.851 M324.902 348.900 C 324.075 349.946,323.908 353.635,324.651 354.456 C 325.649 355.559,325.987 354.765,325.994 351.300 C 326.000 348.484,325.719 347.868,324.902 348.900 M202.753 358.800 C 201.882 359.680,200.906 360.400,200.585 360.400 C 200.263 360.400,200.000 360.551,200.000 360.736 C 200.000 360.920,199.543 361.280,198.985 361.534 C 197.985 361.989,197.421 362.391,196.046 363.625 C 195.663 363.969,195.136 364.179,194.875 364.092 C 194.614 364.005,194.400 364.128,194.400 364.367 C 194.400 364.605,194.193 364.800,193.940 364.800 C 193.017 364.800,189.200 366.983,189.200 367.511 C 189.200 367.872,188.932 367.969,188.400 367.800 C 187.941 367.654,187.600 367.728,187.600 367.973 C 187.600 368.208,187.150 368.400,186.600 368.400 C 185.867 368.400,185.600 368.613,185.600 369.200 C 185.600 370.211,186.249 370.211,187.910 369.199 C 188.630 368.759,189.550 368.400,189.954 368.400 C 190.358 368.400,191.388 367.918,192.244 367.329 C 193.100 366.740,194.610 365.839,195.600 365.327 C 197.520 364.335,200.865 362.033,202.226 360.768 C 202.680 360.345,203.234 360.000,203.456 360.000 C 204.002 360.000,205.600 358.266,205.600 357.674 C 205.600 356.724,204.300 357.238,202.753 358.800 M247.015 357.963 C 246.266 358.256,246.276 358.300,247.215 358.915 C 249.147 360.179,251.200 360.871,251.200 360.259 C 251.200 359.817,248.326 357.520,247.909 357.628 C 247.849 357.644,247.447 357.794,247.015 357.963 M324.119 360.481 C 323.360 361.440,323.202 365.425,323.884 366.399 C 324.774 367.669,325.188 366.780,325.188 363.600 C 325.188 360.725,324.806 359.612,324.119 360.481 M251.867 360.667 C 251.184 361.349,251.667 361.686,258.800 365.504 C 260.230 366.270,261.532 367.100,261.694 367.348 C 261.858 367.600,261.993 367.623,262.000 367.400 C 262.008 367.134,262.110 367.134,262.306 367.400 C 262.631 367.842,266.519 369.818,266.736 369.651 C 266.811 369.594,267.081 369.805,267.336 370.121 C 267.591 370.437,268.790 371.189,270.000 371.792 C 271.210 372.396,272.495 373.039,272.856 373.221 C 273.371 373.481,273.470 373.391,273.317 372.804 C 273.191 372.321,272.899 372.141,272.495 372.296 C 272.134 372.434,271.972 372.368,272.114 372.139 C 272.411 371.658,271.024 370.400,270.195 370.400 C 269.868 370.400,269.600 370.220,269.600 370.000 C 269.600 369.780,269.144 369.600,268.587 369.600 C 268.031 369.600,267.471 369.330,267.345 369.000 C 267.218 368.670,266.864 368.400,266.557 368.400 C 266.251 368.400,266.000 368.220,266.000 368.000 C 266.000 367.780,265.730 367.600,265.400 367.600 C 265.070 367.600,264.800 367.453,264.800 367.274 C 264.800 366.890,261.982 365.485,261.726 365.741 C 261.629 365.837,261.085 365.485,260.517 364.958 C 259.948 364.431,259.322 364.000,259.125 364.000 C 258.928 364.000,258.390 363.649,257.929 363.220 C 257.469 362.791,256.576 362.327,255.946 362.188 C 255.316 362.050,254.799 361.816,254.797 361.668 C 254.790 361.056,252.321 360.212,251.867 360.667 M121.081 361.053 C 120.745 361.389,121.517 362.800,122.038 362.800 C 122.263 362.800,123.111 363.334,123.923 363.986 C 126.003 365.656,136.345 370.767,137.700 370.794 C 138.325 370.807,137.968 369.165,137.300 368.951 C 136.915 368.828,136.240 368.575,135.800 368.389 C 135.360 368.203,134.550 367.925,134.000 367.773 C 133.450 367.620,132.539 367.171,131.976 366.774 C 131.412 366.378,130.428 365.922,129.789 365.761 C 129.150 365.601,128.264 365.132,127.821 364.719 C 127.378 364.307,126.607 363.866,126.108 363.741 C 125.609 363.616,125.200 363.349,125.200 363.148 C 125.200 362.947,124.705 362.564,124.100 362.296 C 123.495 362.028,122.762 361.582,122.471 361.305 C 121.887 360.747,121.463 360.670,121.081 361.053 M184.000 369.545 C 184.000 369.734,183.550 369.803,183.000 369.698 C 182.391 369.581,182.000 369.691,182.000 369.979 C 182.000 370.238,181.685 370.418,181.300 370.379 C 179.998 370.247,179.694 370.398,179.460 371.293 C 179.275 372.001,179.124 372.084,178.733 371.693 C 177.971 370.931,177.200 371.109,177.200 372.047 C 177.200 372.739,177.364 372.843,178.100 372.620 C 178.595 372.469,179.540 372.198,180.200 372.017 C 183.849 371.017,186.577 369.200,184.429 369.200 C 184.193 369.200,184.000 369.355,184.000 369.545 M138.667 369.867 C 138.179 370.354,138.391 371.200,139.000 371.200 C 139.333 371.200,139.600 370.844,139.600 370.400 C 139.600 369.603,139.174 369.360,138.667 369.867 M140.439 370.953 C 140.083 371.382,140.125 371.562,140.623 371.753 C 141.790 372.201,142.400 372.011,142.400 371.200 C 142.400 370.261,141.144 370.103,140.439 370.953 M143.384 371.627 C 143.031 372.196,143.336 372.451,145.107 373.068 C 147.360 373.853,148.369 373.767,148.119 372.813 C 147.859 371.816,146.671 371.427,145.615 371.992 C 144.959 372.343,144.800 372.308,144.800 371.814 C 144.800 371.116,143.782 370.981,143.384 371.627 M323.565 371.842 C 322.686 372.901,322.554 377.531,323.394 377.853 C 324.436 378.253,324.787 377.311,324.794 374.100 C 324.800 371.167,324.533 370.676,323.565 371.842 M174.100 371.865 C 173.825 371.976,173.600 372.322,173.600 372.633 C 173.600 373.319,173.042 373.358,172.055 372.741 C 171.167 372.187,169.071 372.625,169.314 373.315 C 169.522 373.907,174.506 373.785,175.676 373.159 C 177.018 372.441,175.587 371.265,174.100 371.865 M149.884 372.650 C 149.197 373.337,149.661 374.000,150.829 374.000 C 151.784 374.000,152.029 373.844,151.925 373.300 C 151.789 372.584,150.394 372.140,149.884 372.650 M156.126 373.532 C 155.096 374.560,156.094 374.800,161.400 374.800 C 166.706 374.800,167.873 374.513,166.825 373.465 C 166.133 372.774,156.827 372.832,156.126 373.532 M274.097 373.691 C 274.362 374.487,283.186 379.524,283.212 378.895 C 283.219 378.733,283.407 378.914,283.631 379.299 C 283.996 379.924,287.570 381.844,287.955 381.621 C 288.041 381.572,288.255 381.766,288.432 382.052 C 288.609 382.339,289.980 383.248,291.477 384.073 C 297.139 387.193,300.507 389.035,302.485 390.096 C 303.609 390.700,304.815 391.439,305.165 391.739 C 305.514 392.040,307.000 392.844,308.466 393.527 C 309.933 394.209,311.241 394.943,311.374 395.158 C 311.507 395.373,312.557 396.016,313.708 396.587 C 314.858 397.158,316.694 398.146,317.786 398.783 C 321.532 400.969,323.200 400.276,323.200 396.537 C 323.200 393.641,321.649 393.241,321.560 396.114 C 321.520 397.396,320.916 399.791,320.840 398.967 C 320.818 398.728,319.765 398.010,318.500 397.370 C 317.235 396.731,315.463 395.721,314.561 395.127 C 313.660 394.532,312.445 393.926,311.861 393.780 C 311.278 393.633,310.800 393.353,310.800 393.157 C 310.800 392.960,310.530 392.800,310.200 392.800 C 309.870 392.800,309.600 392.641,309.600 392.447 C 309.600 392.252,309.285 391.986,308.900 391.855 C 308.515 391.723,307.120 390.979,305.800 390.202 C 304.480 389.424,302.590 388.385,301.600 387.894 C 300.610 387.402,299.740 386.865,299.667 386.700 C 299.593 386.535,299.351 386.400,299.128 386.400 C 298.906 386.400,298.246 386.061,297.662 385.647 C 297.078 385.233,295.565 384.333,294.300 383.647 C 288.807 380.669,287.723 380.067,286.400 379.259 C 285.630 378.788,284.685 378.402,284.300 378.401 C 283.915 378.401,283.600 378.220,283.600 378.000 C 283.600 377.780,283.345 377.600,283.033 377.600 C 282.722 377.600,282.407 377.465,282.333 377.300 C 282.063 376.691,278.791 374.800,278.009 374.800 C 277.564 374.800,277.200 374.620,277.200 374.400 C 277.200 374.180,276.930 374.000,276.600 374.000 C 276.270 374.000,276.000 373.820,276.000 373.600 C 276.000 373.380,275.535 373.200,274.967 373.200 C 274.327 373.200,273.996 373.387,274.097 373.691 M322.621 383.166 C 321.984 384.197,321.921 388.237,322.535 388.746 C 323.535 389.576,324.000 388.915,323.995 386.676 C 323.986 383.521,323.372 381.951,322.621 383.166 " stroke="none" fill="#7f7f7f" fill-rule="evenodd"></path><path id="path2" d="M258.800 26.582 C 258.470 26.664,256.310 26.945,254.000 27.206 C 245.542 28.162,234.303 31.007,227.200 33.991 C 225.550 34.684,223.551 35.493,222.757 35.788 C 217.507 37.740,205.969 44.861,199.576 50.093 C 188.116 59.473,180.977 68.345,170.201 86.600 C 167.604 91.000,163.195 98.470,160.404 103.200 C 157.612 107.930,152.657 116.300,149.393 121.800 C 146.128 127.300,142.403 133.600,141.116 135.800 C 139.829 138.000,135.046 146.078,130.488 153.751 L 122.200 167.702 85.719 191.151 C 65.654 204.048,49.229 214.807,49.219 215.059 C 49.208 215.312,56.715 219.744,65.900 224.908 C 75.085 230.073,92.590 239.930,104.800 246.813 C 117.010 253.697,138.250 265.665,152.000 273.408 C 165.750 281.152,181.860 290.232,187.800 293.586 C 193.740 296.941,203.640 302.523,209.800 305.991 C 215.960 309.460,231.620 318.282,244.600 325.597 C 303.798 358.957,299.230 356.400,299.625 356.400 C 300.077 356.400,300.341 354.098,300.795 346.200 C 301.010 342.460,301.364 336.520,301.582 333.000 C 301.800 329.480,302.256 321.920,302.596 316.200 C 302.936 310.480,303.392 303.010,303.610 299.600 C 303.828 296.190,304.199 290.250,304.435 286.400 C 304.670 282.550,304.987 277.420,305.138 275.000 L 305.412 270.600 321.760 243.000 C 330.751 227.820,341.028 210.450,344.597 204.400 C 348.166 198.350,353.017 190.160,355.376 186.200 C 364.483 170.917,368.677 160.323,371.037 146.645 C 381.751 84.541,333.381 27.627,269.000 26.587 C 263.720 26.502,259.130 26.500,258.800 26.582 M125.040 292.900 C 117.767 308.070,122.241 327.354,135.510 338.036 C 153.447 352.474,180.537 349.019,193.142 330.686 C 194.912 328.112,195.918 328.929,179.792 319.849 C 171.876 315.392,156.718 306.853,146.108 300.873 C 135.497 294.893,126.729 290.000,126.623 290.000 C 126.517 290.000,125.804 291.305,125.040 292.900 " stroke="none" fill="#ffffff" fill-rule="evenodd"></path></g></svg>